<svg version="1.2" xmlns="http://www.w3.org/2000/svg" viewBox="0 0 800 663" width="800" height="663">
	<title>101117-OLRPJX-843-ai</title>
	<style>
		.s0 { fill: #a97c50 } 
		.s1 { fill: #8b5e3c } 
		.s2 { fill: #603e29 } 
		.s3 { fill: #93cb2f } 
		.s4 { fill: #81b329 } 
		.s5 { fill: #709c24 } 
		.s6 { fill: #7fba19 } 
		.s7 { fill: #8abf2c } 
		.s8 { fill: #7d5436 } 
		.s9 { fill: #8ec42d } 
		.s10 { fill: #6d9623 } 
		.s11 { fill: #79a827 } 
		.s12 { fill: #86ba2a } 
		.s13 { fill: #754c29 } 
		.s14 { fill: #7dad28 } 
		.s15 { fill: #8dc63f } 
		.s16 { fill: #74a124 } 
		.s17 { fill: #93cc2e } 
	</style>
	<g id="Objects">
		<g id="&lt;Group&gt;">
			<g id="&lt;Group&gt;">
				<g id="&lt;Group&gt;">
					<g id="&lt;Group&gt;">
						<g id="&lt;Group&gt;">
							<path id="&lt;Path&gt;" class="s0" d="m247.6 248.4l-120.8 70.3-121.8-70.3 121-70.4z"/>
						</g>
						<g id="&lt;Group&gt;">
							<path id="&lt;Path&gt;" class="s1" d="m247.6 248.4v15.8l-120.8 70.3v-15.8z"/>
						</g>
						<g id="&lt;Group&gt;">
							<path id="&lt;Path&gt;" class="s2" d="m126.8 318.7v15.8l-121.8-70.3v-15.8z"/>
						</g>
					</g>
				</g>
				<g id="&lt;Group&gt;">
					<g id="&lt;Group&gt;">
						<g id="&lt;Group&gt;">
							<path id="&lt;Path&gt;" class="s3" d="m247.6 237.4l-120.8 70.3-121.8-70.3 121-70.4z"/>
						</g>
						<g id="&lt;Group&gt;">
							<path id="&lt;Path&gt;" class="s4" d="m247.6 237.4v15.8l-120.8 70.3v-15.8z"/>
						</g>
						<g id="&lt;Group&gt;">
							<path id="&lt;Path&gt;" class="s5" d="m126.8 307.7v15.8l-121.8-70.3v-15.8z"/>
						</g>
					</g>
				</g>
				<g id="&lt;Group&gt;">
					<path id="&lt;Path&gt;" class="s6" d="m158.6 220.7c16.9 9.7 17 25.4 0.2 35.2-16.7 9.7-43.9 9.7-60.7 0-16.8-9.8-16.9-25.5-0.2-35.2 16.7-9.7 43.9-9.7 60.7 0z"/>
				</g>
				<g id="&lt;Group&gt;">
					<path id="&lt;Path&gt;" class="s6" d="m124.4 215c10.5 6 10.6 15.8 0.2 21.9-10.5 6-27.4 6-37.9 0-10.5-6.1-10.5-15.9-0.1-21.9 10.4-6.1 27.4-6.1 37.8 0z"/>
				</g>
				<g id="&lt;Group&gt;">
					<path id="&lt;Path&gt;" class="s6" d="m171.3 220.9c7.4 4.3 7.5 11.2 0.1 15.5-7.4 4.3-19.4 4.3-26.8 0-7.4-4.3-7.5-11.2-0.1-15.5 7.4-4.3 19.4-4.3 26.8 0z"/>
				</g>
				<g id="&lt;Group&gt;">
					<g id="&lt;Group&gt;">
						<path id="&lt;Path&gt;" class="s7" d="m122.8 273.4c2.2 1.2 2.2 3.3 0.1 4.5-2.2 1.3-5.7 1.3-7.9 0-2.2-1.2-2.2-3.3 0-4.5 2.1-1.3 5.7-1.3 7.8 0z"/>
					</g>
					<g id="&lt;Group&gt;">
						<path id="&lt;Path&gt;" class="s7" d="m216 231c2.2 1.3 2.2 3.3 0 4.6-2.1 1.2-5.7 1.2-7.8 0-2.2-1.3-2.2-3.3-0.1-4.6 2.2-1.2 5.7-1.2 7.9 0z"/>
					</g>
					<g id="&lt;Group&gt;">
						<path id="&lt;Path&gt;" class="s7" d="m187 237.7c2.2 1.3 2.2 3.3 0 4.6-2.1 1.2-5.7 1.2-7.8 0-2.2-1.3-2.2-3.3-0.1-4.6 2.2-1.3 5.7-1.3 7.9 0z"/>
					</g>
					<g id="&lt;Group&gt;">
						<path id="&lt;Path&gt;" class="s7" d="m48.6 234.4c2.2 1.2 2.2 3.3 0 4.5-2.1 1.3-5.7 1.3-7.8 0-2.2-1.2-2.2-3.3-0.1-4.5 2.2-1.3 5.7-1.3 7.9 0z"/>
					</g>
					<g id="&lt;Group&gt;">
						<path id="&lt;Path&gt;" class="s7" d="m70.9 243.3c2.2 1.2 2.2 3.3 0 4.5-2.1 1.3-5.6 1.3-7.8 0-2.2-1.2-2.2-3.3 0-4.5 2.1-1.3 5.6-1.3 7.8 0z"/>
					</g>
					<g id="&lt;Group&gt;">
						<path id="&lt;Path&gt;" class="s7" d="m103.3 193.1c2.2 1.2 2.2 3.3 0 4.5-2.1 1.3-5.6 1.3-7.8 0-2.2-1.2-2.2-3.3 0-4.5 2.1-1.3 5.6-1.3 7.8 0z"/>
					</g>
					<g id="&lt;Group&gt;">
						<path id="&lt;Path&gt;" class="s7" d="m161.3 198.7c2.2 1.2 2.2 3.2 0.1 4.5-2.2 1.3-5.7 1.3-7.9 0-2.2-1.3-2.2-3.3 0-4.5 2.1-1.3 5.7-1.3 7.8 0z"/>
					</g>
					<g id="&lt;Group&gt;">
						<path id="&lt;Path&gt;" class="s7" d="m150.1 278.9c2.2 1.3 2.2 3.3 0 4.5-2.1 1.3-5.6 1.3-7.8 0-2.2-1.2-2.2-3.2-0.1-4.5 2.2-1.3 5.7-1.3 7.9 0z"/>
					</g>
				</g>
				<g id="&lt;Group&gt;">
					<path id="&lt;Path&gt;" class="s1" d="m165.1 144.4c-10.9 4.4-20.3 11.9-27.1 21.5l-0.8 1.1-1.9-27.9h-16.5l-1.5 21.2c-3.3-4.1-7.5-7.3-12.4-9.3-1.3-0.5-2.3 1.1-1.3 2l3.8 3.5c2.9 2.7 5.2 5.8 6.9 9.4l2.3 4.6-4.7 65.4c-0.2 2.9 1.1 5.8 4 8.1 6 4.8 16 4.8 21.9 0 2.9-2.2 4.2-5.2 4-8l-3.1-46.3 7.4-15.4c3.4-7.1 8.1-13.4 13.9-18.8l7.7-7c2.1-1.9 0-5.2-2.6-4.1z"/>
					<path id="&lt;Path&gt;" class="s8" d="m141.8 236l-3.1-46.3 7.4-15.4c3.4-7.1 8.1-13.4 13.9-18.8l7.7-7c2.1-1.9 0-5.2-2.6-4.1-10.9 4.4-20.3 11.9-27.1 21.5l-0.8 1.1-1.9-27.9h-8.3v108.5c3.9 0 7.9-1.2 10.8-3.6 2.9-2.2 4.2-5.2 4-8z"/>
					<g id="&lt;Group&gt;">
						<path id="&lt;Path&gt;" class="s4" d="m176.4 98.8c0.8-1.4 1.3-3.1 1.3-4.9 0-2.4-0.8-4.6-2.2-6.3-0.4-20.4-21.7-36.8-47.9-36.8-26.1 0-47.3 16.3-47.8 36.6-1.5 1.7-2.4 4-2.4 6.5 0 3.1 1.5 5.9 3.8 7.7q0.4 1.8 1.1 3.4c-1.5 2.2-2.4 4.9-2.4 7.8 0 7.6 6.1 13.7 13.6 13.7 2.5 0 4.8-0.7 6.8-1.9 2.1 1.2 4.4 1.9 6.9 1.9q0.6 0 1.2-0.1c3.8 7.5 11.5 12.6 20.4 12.6 8.9 0 16.6-5.1 20.4-12.6q0 0 0.1 0c5.2 0 9.7-2.9 12-7.2q1.7 0.4 3.5 0.4c7.5 0 13.6-6.1 13.6-13.6 0-2.6-0.7-5.1-2-7.2z"/>
						<path id="&lt;Path&gt;" class="s9" d="m166.1 66c-8.7-9.2-22.7-15.2-38.5-15.2-15.6 0-29.5 5.9-38.2 15 8.9 6.9 22.8 11.3 38.5 11.3 15.5 0 29.3-4.3 38.2-11.1z"/>
						<path id="&lt;Path&gt;" class="s10" d="m176.4 98.8c0.8-1.4 1.3-3.1 1.3-4.9 0-0.8-0.1-1.5-0.2-2.2-2.1 5-7 8.6-12.7 8.6q-1.8 0-3.5-0.5c-2.3 4.3-6.8 7.2-12 7.2q-0.1 0-0.1 0c-3.8 7.5-11.5 12.6-20.4 12.6-8.9 0-16.6-5.1-20.4-12.6q-0.6 0.1-1.2 0.1c-2.5 0-4.8-0.7-6.9-1.8-2 1.1-4.3 1.8-6.8 1.8-4.5 0-8.5-2.2-11-5.6q-0.5 0.7-1 1.3 0.3 1.2 0.8 2.2c-1.5 2.2-2.4 4.9-2.4 7.8 0 7.6 6.1 13.7 13.6 13.7 2.5 0 4.8-0.7 6.8-1.9 2.1 1.2 4.4 1.9 6.9 1.9q0.6 0 1.2-0.1c3.8 7.5 11.5 12.6 20.4 12.6 8.9 0 16.6-5.1 20.4-12.6q0 0 0.1 0c5.2 0 9.7-2.9 12-7.2q1.7 0.4 3.5 0.4c7.5 0 13.6-6.1 13.6-13.6 0-2.6-0.7-5.1-2-7.2z"/>
					</g>
					<g id="&lt;Group&gt;">
						<path id="&lt;Path&gt;" class="s11" d="m123 137c0.6-1.1 1-2.4 1-3.8 0-1.8-0.7-3.5-1.8-4.8-0.2-15.5-16.5-28.1-36.5-28.1-19.9 0-36.1 12.5-36.5 28-1.2 1.3-1.9 3-1.9 4.9 0 2.4 1.2 4.6 2.9 5.9q0.3 1.4 0.9 2.6c-1.2 1.7-1.9 3.8-1.9 6 0 5.7 4.7 10.4 10.5 10.4 1.9 0 3.6-0.5 5.2-1.4 1.5 0.9 3.3 1.4 5.2 1.4q0.5 0 0.9 0c2.9 5.7 8.8 9.6 15.6 9.6 6.8 0 12.7-3.9 15.6-9.6q0 0 0.1 0c4 0 7.4-2.3 9.2-5.6q1.2 0.4 2.6 0.4c5.8 0 10.4-4.7 10.4-10.4 0-2-0.6-3.9-1.5-5.5z"/>
						<path id="&lt;Path&gt;" class="s7" d="m115.1 111.9c-6.6-7-17.3-11.6-29.4-11.6-12 0-22.6 4.5-29.2 11.5 6.8 5.2 17.5 8.6 29.4 8.6 11.8 0 22.4-3.3 29.2-8.5z"/>
						<path id="&lt;Path&gt;" class="s10" d="m123 137c0.6-1.1 1-2.4 1-3.8q0-0.8-0.2-1.6c-1.6 3.8-5.3 6.5-9.7 6.5q-1.4 0-2.6-0.4c-1.8 3.3-5.2 5.6-9.2 5.6q-0.1 0-0.1 0c-2.9 5.7-8.8 9.6-15.6 9.6-6.8 0-12.7-3.9-15.6-9.6q-0.4 0-0.9 0c-1.9 0-3.7-0.5-5.2-1.4-1.6 0.9-3.3 1.4-5.2 1.4-3.5 0-6.5-1.7-8.4-4.3q-0.4 0.5-0.8 1 0.2 0.9 0.6 1.7c-1.2 1.7-1.9 3.8-1.9 6 0 5.7 4.7 10.4 10.5 10.4 1.9 0 3.6-0.5 5.2-1.4 1.5 0.9 3.3 1.4 5.2 1.4q0.5 0 0.9 0c2.9 5.7 8.8 9.6 15.6 9.6 6.8 0 12.7-3.9 15.6-9.6q0 0 0.1 0c4 0 7.4-2.3 9.2-5.6q1.2 0.4 2.6 0.4c5.8 0 10.4-4.7 10.4-10.4 0-2-0.6-3.9-1.5-5.5z"/>
					</g>
					<g id="&lt;Group&gt;">
						<path id="&lt;Path&gt;" class="s12" d="m203.5 132.8c0.7-1.3 1.2-2.7 1.2-4.3 0-2.1-0.8-4-2-5.5-0.3-17.8-19-32.2-41.9-32.2-22.9 0-41.5 14.3-41.9 32-1.4 1.5-2.2 3.5-2.2 5.7 0 2.8 1.3 5.2 3.4 6.8q0.3 1.6 1 3c-1.4 1.9-2.2 4.3-2.2 6.8 0 6.6 5.4 12 12 12 2.2 0 4.2-0.6 6-1.7 1.7 1.1 3.8 1.7 5.9 1.7q0.6 0 1.1-0.1c3.3 6.5 10.1 11 17.9 11 7.8 0 14.6-4.5 17.8-11q0.1 0 0.2 0c4.5 0 8.5-2.6 10.5-6.3q1.5 0.4 3.1 0.4c6.6 0 11.9-5.4 11.9-12 0-2.3-0.7-4.5-1.8-6.3z"/>
						<path id="&lt;Path&gt;" class="s9" d="m194.5 104.1c-7.6-8.1-19.9-13.3-33.7-13.3-13.7 0-25.9 5.1-33.6 13.1 7.9 6 20.1 9.9 33.8 9.9 13.6 0 25.7-3.8 33.5-9.7z"/>
						<path id="&lt;Path&gt;" class="s10" d="m203.5 132.8c0.7-1.3 1.2-2.7 1.2-4.3q0-1-0.3-1.9c-1.7 4.4-6 7.5-11 7.5q-1.6 0-3.1-0.4c-2 3.8-6 6.3-10.5 6.3q-0.1 0-0.2 0c-3.2 6.6-10 11.1-17.8 11.1-7.8 0-14.6-4.5-17.9-11.1q-0.5 0.1-1.1 0.1c-2.1 0-4.2-0.6-5.9-1.6-1.8 1-3.8 1.6-6 1.6-4 0-7.5-2-9.6-4.9q-0.5 0.6-0.9 1.1 0.2 1 0.7 2c-1.4 1.9-2.2 4.3-2.2 6.8 0 6.6 5.4 12 12 12 2.2 0 4.2-0.6 6-1.7 1.7 1.1 3.8 1.7 5.9 1.7q0.6 0 1.1-0.1c3.3 6.5 10.1 11 17.9 11 7.8 0 14.6-4.5 17.8-11q0.1 0 0.2 0c4.5 0 8.5-2.6 10.5-6.3q1.5 0.4 3.1 0.4c6.6 0 11.9-5.4 11.9-12 0-2.3-0.7-4.5-1.8-6.3z"/>
					</g>
				</g>
			</g>
			<g id="&lt;Group&gt;">
				<g id="&lt;Group&gt;">
					<g id="&lt;Group&gt;">
						<g id="&lt;Group&gt;">
							<path id="&lt;Path&gt;" class="s0" d="m521.9 248.4l-120.8 70.3-121.8-70.3 121-70.4z"/>
						</g>
						<g id="&lt;Group&gt;">
							<path id="&lt;Path&gt;" class="s1" d="m521.9 248.4v15.8l-120.8 70.3v-15.8z"/>
						</g>
						<g id="&lt;Group&gt;">
							<path id="&lt;Path&gt;" class="s2" d="m401.1 318.7v15.8l-121.8-70.3v-15.8z"/>
						</g>
					</g>
				</g>
				<g id="&lt;Group&gt;">
					<g id="&lt;Group&gt;">
						<g id="&lt;Group&gt;">
							<path id="&lt;Path&gt;" class="s3" d="m521.9 237.4l-120.8 70.3-121.8-70.3 121-70.4z"/>
						</g>
						<g id="&lt;Group&gt;">
							<path id="&lt;Path&gt;" class="s4" d="m521.9 237.4v15.8l-120.8 70.3v-15.8z"/>
						</g>
						<g id="&lt;Group&gt;">
							<path id="&lt;Path&gt;" class="s5" d="m401.1 307.7v15.8l-121.8-70.3v-15.8z"/>
						</g>
					</g>
				</g>
				<g id="&lt;Group&gt;">
					<path id="&lt;Path&gt;" class="s6" d="m439.2 220.7c21.4 9.7 21.5 25.4 0.2 35.2-21.3 9.7-55.9 9.7-77.3 0-21.5-9.8-21.6-25.5-0.3-35.2 21.3-9.7 56-9.7 77.4 0z"/>
				</g>
				<g id="&lt;Group&gt;">
					<g id="&lt;Group&gt;">
						<path id="&lt;Path&gt;" class="s7" d="m397.2 273.4c2.1 1.2 2.1 3.3 0 4.5-2.2 1.3-5.7 1.3-7.9 0-2.2-1.2-2.2-3.3 0-4.5 2.2-1.3 5.7-1.3 7.9 0z"/>
					</g>
					<g id="&lt;Group&gt;">
						<path id="&lt;Path&gt;" class="s7" d="m490.3 231c2.2 1.3 2.2 3.3 0 4.6-2.1 1.2-5.6 1.2-7.8 0-2.2-1.3-2.2-3.3 0-4.6 2.1-1.2 5.6-1.2 7.8 0z"/>
					</g>
					<g id="&lt;Group&gt;">
						<path id="&lt;Path&gt;" class="s7" d="m461.3 237.7c2.2 1.3 2.2 3.3 0 4.6-2.1 1.2-5.6 1.2-7.8 0-2.2-1.3-2.2-3.3 0-4.6 2.1-1.3 5.6-1.3 7.8 0z"/>
					</g>
					<g id="&lt;Group&gt;">
						<path id="&lt;Path&gt;" class="s7" d="m322.9 234.4c2.2 1.2 2.2 3.3 0.1 4.5-2.2 1.3-5.7 1.3-7.9 0-2.2-1.2-2.2-3.3 0-4.5 2.1-1.3 5.6-1.3 7.8 0z"/>
					</g>
					<g id="&lt;Group&gt;">
						<path id="&lt;Path&gt;" class="s7" d="m345.2 243.3c2.2 1.2 2.2 3.3 0.1 4.5-2.2 1.3-5.7 1.3-7.9 0-2.2-1.2-2.2-3.3 0-4.5 2.1-1.3 5.7-1.3 7.8 0z"/>
					</g>
					<g id="&lt;Group&gt;">
						<path id="&lt;Path&gt;" class="s7" d="m377.6 193.1c2.2 1.2 2.2 3.3 0.1 4.5-2.2 1.3-5.7 1.3-7.9 0-2.2-1.2-2.2-3.3 0-4.5 2.1-1.3 5.7-1.3 7.8 0z"/>
					</g>
					<g id="&lt;Group&gt;">
						<path id="&lt;Path&gt;" class="s7" d="m435.7 198.7c2.1 1.2 2.1 3.2 0 4.5-2.2 1.3-5.7 1.3-7.9 0-2.2-1.3-2.2-3.3 0-4.5 2.2-1.3 5.7-1.3 7.9 0z"/>
					</g>
					<g id="&lt;Group&gt;">
						<path id="&lt;Path&gt;" class="s7" d="m424.4 278.9c2.2 1.3 2.2 3.3 0.1 4.5-2.2 1.3-5.7 1.3-7.9 0-2.2-1.2-2.2-3.2 0-4.5 2.1-1.3 5.6-1.3 7.8 0z"/>
					</g>
				</g>
				<g id="&lt;Group&gt;">
					<g id="&lt;Group&gt;">
						<g id="&lt;Group&gt;">
							<g id="&lt;Group&gt;">
								<g id="&lt;Group&gt;">
									<path id="&lt;Path&gt;" class="s1" d="m407.1 158l4.9 73.7c0.2 2.2-0.8 4.4-3 6.1-4.5 3.6-12.2 3.6-16.7 0-2.2-1.7-3.2-4-3.1-6.2l5.3-73.7z"/>
								</g>
							</g>
							<path id="&lt;Path&gt;" class="s13" d="m412 231.7l-4.9-73.7h-6.4v82.5c3.1 0 6.1-0.9 8.3-2.7 2.2-1.7 3.2-3.9 3-6.1z"/>
						</g>
					</g>
					<g id="&lt;Group&gt;">
						<path id="&lt;Path&gt;" class="s14" d="m464.1 182.8c-23.2-17.9-44-38.9-61.8-62.3l-1.7-2.2-1.6 2.2c-17.8 23.4-38.6 44.4-61.9 62.3l-4.7 3.7 19.2 0.6q5 0.1 9.9-0.5c16-1.9 31.6 5.9 39 20.2l0.1 0.2 0.1-0.2c7.5-14.3 23.1-22.1 39-20.2q5 0.6 10 0.5l19.2-0.6z"/>
						<path id="&lt;Path&gt;" class="s12" d="m400.6 188.3v-0.1c7.5-14.2 23-22.3 38.9-20.3q3.6 0.4 7.2 0.5c-16.4-14.5-31.2-30.5-44.4-47.9l-1.7-2.2-1.6 2.2c-13.2 17.4-28.1 33.4-44.4 47.9q3.6-0.1 7.1-0.5c16-2 31.5 6.1 38.9 20.3z"/>
						<path id="&lt;Path&gt;" class="s15" d="m400.6 173.9c-1.8 0-3.2-4.6-3.2-10.3 0-5.7 1.4-10.3 3.2-10.3 1.8 0 3.3 4.6 3.3 10.3 0 5.7-1.5 10.3-3.3 10.3z"/>
						<g id="&lt;Group&gt;">
							<path id="&lt;Path&gt;" class="s15" d="m423.2 148.6c4.1 4.1 6.3 8.4 5 9.7-1.3 1.2-5.6-1-9.6-5-4-4.1-6.3-8.4-5-9.6 1.3-1.3 5.6 0.9 9.6 4.9z"/>
							<path id="&lt;Path&gt;" class="s15" d="m378 148.6c-4 4.1-6.2 8.4-5 9.7 1.3 1.2 5.6-1 9.7-5 4-4.1 6.2-8.4 4.9-9.6-1.2-1.3-5.5 0.9-9.6 4.9z"/>
						</g>
					</g>
					<g id="&lt;Group&gt;">
						<path id="&lt;Path&gt;" class="s14" d="m455.4 146.8c-20.1-15.5-38-33.5-53.3-53.7l-1.5-1.9-1.4 1.9c-15.3 20.2-33.3 38.2-53.3 53.7l-4.1 3.2 16.5 0.5q4.5 0.1 8.8-0.5c13.8-1.7 27.1 5.3 33.5 17.6 6.4-12.3 19.8-19.3 33.5-17.6q4.4 0.6 8.8 0.5l16.6-0.5z"/>
						<path id="&lt;Path&gt;" class="s12" d="m400.6 151.5c6.4-12.3 19.8-19.3 33.6-17.6q3 0.4 6.1 0.4c-14-12.4-26.9-26.2-38.2-41.2l-1.5-1.9-1.4 1.9c-11.4 15-24.2 28.8-38.3 41.2q3.1 0 6.2-0.4c13.7-1.7 27.1 5.3 33.5 17.6z"/>
						<path id="&lt;Path&gt;" class="s15" d="m400.6 139.1c-1.5 0-2.8-3.9-2.8-8.9 0-4.9 1.3-8.9 2.8-8.9 1.6 0 2.9 4 2.9 8.9 0 5-1.3 8.9-2.9 8.9z"/>
						<g id="&lt;Group&gt;">
							<path id="&lt;Path&gt;" class="s15" d="m420.1 117.3c3.5 3.5 5.4 7.2 4.3 8.3-1.1 1.1-4.8-0.8-8.3-4.3-3.4-3.5-5.4-7.2-4.3-8.3 1.1-1.1 4.8 0.8 8.3 4.3z"/>
							<path id="&lt;Path&gt;" class="s15" d="m381.1 117.3c-3.4 3.5-5.4 7.2-4.3 8.3 1.1 1.1 4.9-0.8 8.3-4.3 3.5-3.5 5.4-7.2 4.3-8.3-1.1-1.1-4.8 0.8-8.3 4.3z"/>
						</g>
					</g>
					<g id="&lt;Group&gt;">
						<path id="&lt;Path&gt;" class="s14" d="m455.4 114.4c-20.1-15.4-38-33.5-53.3-53.7l-1.5-1.9-1.4 1.9c-15.3 20.2-33.3 38.3-53.3 53.7l-4.1 3.2 16.5 0.5q4.5 0.1 8.8-0.4c13.8-1.8 27.1 5.2 33.5 17.5 6.4-12.3 19.8-19.3 33.5-17.5q4.4 0.5 8.8 0.4l16.6-0.5z"/>
						<path id="&lt;Path&gt;" class="s12" d="m400.6 119.1c6.4-12.3 19.8-19.3 33.6-17.6q3 0.4 6.1 0.5c-14-12.5-26.9-26.3-38.2-41.3l-1.5-1.9-1.4 1.9c-11.4 15-24.2 28.8-38.3 41.3q3.1-0.1 6.2-0.5c13.7-1.7 27.1 5.3 33.5 17.6z"/>
						<path id="&lt;Path&gt;" class="s15" d="m400.6 106.8c-1.5 0-2.8-4-2.8-8.9 0-5 1.3-8.9 2.8-8.9 1.6 0 2.9 3.9 2.9 8.9 0 4.9-1.3 8.9-2.9 8.9z"/>
						<g id="&lt;Group&gt;">
							<path id="&lt;Path&gt;" class="s15" d="m420.1 84.9c3.5 3.5 5.4 7.2 4.3 8.3-1.1 1.1-4.8-0.8-8.3-4.3-3.4-3.4-5.4-7.2-4.3-8.3 1.1-1.1 4.8 0.9 8.3 4.3z"/>
							<path id="&lt;Path&gt;" class="s15" d="m381.1 84.9c-3.4 3.5-5.4 7.2-4.3 8.3 1.1 1.1 4.9-0.8 8.3-4.3 3.5-3.4 5.4-7.2 4.3-8.3-1.1-1.1-4.8 0.9-8.3 4.3z"/>
						</g>
					</g>
					<g id="&lt;Group&gt;">
						<path id="&lt;Path&gt;" class="s14" d="m447.5 85.1c-17.2-13.3-32.5-28.8-45.6-46l-1.3-1.7-1.2 1.7c-13.1 17.2-28.4 32.7-45.6 46l-3.5 2.7 14.2 0.4q3.7 0.1 7.5-0.4c11.7-1.5 23.2 4.5 28.6 15.1 5.5-10.6 16.9-16.6 28.7-15.1q3.7 0.5 7.5 0.4l14.2-0.4z"/>
						<path id="&lt;Path&gt;" class="s12" d="m400.6 89c5.5-10.5 17-16.5 28.7-15q2.6 0.3 5.3 0.4c-12-10.7-23-22.5-32.7-35.3l-1.3-1.7-1.2 1.7c-9.7 12.8-20.7 24.6-32.7 35.3q2.6-0.1 5.2-0.4c11.8-1.5 23.3 4.5 28.7 15z"/>
						<path id="&lt;Path&gt;" class="s15" d="m400.6 78.5c-1.3 0-2.4-3.4-2.4-7.6 0-4.2 1.1-7.6 2.4-7.6 1.4 0 2.4 3.4 2.4 7.6 0 4.2-1 7.6-2.4 7.6z"/>
						<g id="&lt;Group&gt;">
							<path id="&lt;Path&gt;" class="s15" d="m417.3 59.8c3 3 4.6 6.2 3.7 7.1-1 1-4.1-0.7-7.1-3.7-3-2.9-4.6-6.1-3.7-7.1 1-0.9 4.1 0.7 7.1 3.7z"/>
							<path id="&lt;Path&gt;" class="s15" d="m384 59.8c-3 3-4.7 6.2-3.7 7.1 0.9 1 4.1-0.7 7.1-3.7 2.9-2.9 4.6-6.1 3.6-7.1-0.9-0.9-4.1 0.7-7 3.7z"/>
						</g>
					</g>
				</g>
			</g>
			<g id="&lt;Group&gt;">
				<g id="&lt;Group&gt;">
					<g id="&lt;Group&gt;">
						<g id="&lt;Group&gt;">
							<g id="&lt;Group&gt;">
								<path id="&lt;Path&gt;" class="s0" d="m247.4 564.4l-120.8 70.3-121.9-70.3 121.1-70.3z"/>
							</g>
							<g id="&lt;Group&gt;">
								<path id="&lt;Path&gt;" class="s1" d="m247.4 564.4v15.8l-120.8 70.3v-15.8z"/>
							</g>
							<g id="&lt;Group&gt;">
								<path id="&lt;Path&gt;" class="s2" d="m126.6 634.7v15.8l-121.9-70.3v-15.8z"/>
							</g>
						</g>
					</g>
					<g id="&lt;Group&gt;">
						<g id="&lt;Group&gt;">
							<g id="&lt;Group&gt;">
								<path id="&lt;Path&gt;" class="s3" d="m247.4 553.4l-120.8 70.3-121.9-70.3 121.1-70.3z"/>
							</g>
							<g id="&lt;Group&gt;">
								<path id="&lt;Path&gt;" class="s4" d="m247.4 553.4v15.8l-120.8 70.3v-15.8z"/>
							</g>
							<g id="&lt;Group&gt;">
								<path id="&lt;Path&gt;" class="s5" d="m126.6 623.7v15.8l-121.9-70.3v-15.8z"/>
							</g>
						</g>
					</g>
					<g id="&lt;Group&gt;">
						<g id="&lt;Group&gt;">
							<path id="&lt;Path&gt;" class="s7" d="m122.6 589.4c2.1 1.3 2.2 3.3 0 4.5-2.2 1.3-5.7 1.3-7.9 0-2.1-1.2-2.1-3.2 0-4.5 2.2-1.3 5.7-1.3 7.9 0z"/>
						</g>
						<g id="&lt;Group&gt;">
							<path id="&lt;Path&gt;" class="s7" d="m215.7 547c2.2 1.3 2.2 3.3 0.1 4.6-2.2 1.2-5.7 1.2-7.9 0-2.2-1.3-2.2-3.3 0-4.6 2.1-1.2 5.7-1.2 7.8 0z"/>
						</g>
						<g id="&lt;Group&gt;">
							<path id="&lt;Path&gt;" class="s7" d="m186.7 553.7c2.2 1.3 2.2 3.3 0.1 4.6-2.2 1.2-5.7 1.2-7.9 0-2.2-1.3-2.2-3.3 0-4.6 2.1-1.2 5.7-1.2 7.8 0z"/>
						</g>
						<g id="&lt;Group&gt;">
							<path id="&lt;Path&gt;" class="s7" d="m48.3 550.4c2.2 1.2 2.2 3.3 0.1 4.5-2.2 1.3-5.7 1.3-7.9 0-2.2-1.2-2.2-3.3 0-4.5 2.2-1.3 5.7-1.3 7.8 0z"/>
						</g>
						<g id="&lt;Group&gt;">
							<path id="&lt;Path&gt;" class="s7" d="m70.7 559.3c2.1 1.3 2.1 3.3 0 4.6-2.2 1.2-5.7 1.2-7.9 0-2.1-1.3-2.2-3.3 0-4.6 2.2-1.2 5.7-1.2 7.9 0z"/>
						</g>
						<g id="&lt;Group&gt;">
							<path id="&lt;Path&gt;" class="s7" d="m103.1 509.1c2.1 1.3 2.1 3.3 0 4.6-2.2 1.2-5.7 1.2-7.9 0-2.1-1.3-2.2-3.3 0-4.6 2.2-1.2 5.7-1.2 7.9 0z"/>
						</g>
						<g id="&lt;Group&gt;">
							<path id="&lt;Path&gt;" class="s7" d="m161.1 514.7c2.2 1.2 2.2 3.3 0 4.5-2.2 1.3-5.7 1.3-7.9 0-2.1-1.2-2.1-3.3 0-4.5 2.2-1.3 5.7-1.3 7.9 0z"/>
						</g>
						<g id="&lt;Group&gt;">
							<path id="&lt;Path&gt;" class="s7" d="m149.8 594.9c2.2 1.3 2.2 3.3 0.1 4.6-2.2 1.2-5.7 1.2-7.9 0-2.2-1.3-2.2-3.3 0-4.6 2.2-1.2 5.7-1.2 7.8 0z"/>
						</g>
					</g>
				</g>
				<g id="&lt;Group&gt;">
					<g id="&lt;Group&gt;">
						<path id="&lt;Path&gt;" class="s6" d="m156.6 538.9c16.8 9.7 16.9 25.4 0.2 35.1-16.7 9.8-43.9 9.8-60.7 0-16.9-9.7-17-25.4-0.2-35.1 16.7-9.8 43.9-9.8 60.7 0z"/>
					</g>
					<g id="&lt;Group&gt;">
						<path id="&lt;Path&gt;" class="s6" d="m122.4 533.2c10.5 6 10.5 15.8 0.1 21.9-10.4 6-27.3 6-37.8 0-10.5-6.1-10.6-15.9-0.2-21.9 10.5-6.1 27.4-6.1 37.9 0z"/>
					</g>
					<g id="&lt;Group&gt;">
						<path id="&lt;Path&gt;" class="s6" d="m169.3 539.1c7.4 4.3 7.4 11.2 0.1 15.5-7.4 4.3-19.4 4.3-26.8 0-7.5-4.3-7.5-11.2-0.1-15.5 7.3-4.3 19.4-4.3 26.8 0z"/>
					</g>
					<g id="&lt;Group&gt;">
						<path id="&lt;Path&gt;" class="s6" d="m179 524.5c7.5 4.2 7.5 11.2 0.1 15.5-7.4 4.3-19.4 4.3-26.8 0-7.4-4.3-7.4-11.3-0.1-15.5 7.4-4.3 19.4-4.3 26.8 0z"/>
					</g>
					<g id="&lt;Group&gt;">
						<path id="&lt;Path&gt;" class="s6" d="m107.5 555.3c7.4 4.3 7.4 11.3 0.1 15.6-7.4 4.3-19.4 4.3-26.8 0-7.5-4.3-7.5-11.3-0.1-15.5 7.4-4.3 19.4-4.3 26.8-0.1z"/>
					</g>
					<g id="&lt;Group&gt;">
						<path id="&lt;Path&gt;" class="s6" d="m122.5 564.3c7.4 4.3 7.4 11.2 0.1 15.5-7.4 4.3-19.4 4.3-26.8 0-7.5-4.3-7.5-11.2-0.1-15.5 7.3-4.3 19.3-4.3 26.8 0z"/>
					</g>
				</g>
				<g id="&lt;Group&gt;">
					<g id="&lt;Group&gt;">
						<path id="&lt;Path&gt;" class="s12" d="m137.6 431.4c-6.6 0-12-5.4-12-12 0-6.6 5.4-12 12-12 6.7 0 12 5.4 12 12 0 6.6-5.3 12-12 12z"/>
						<path id="&lt;Path&gt;" class="s12" d="m144 414.3q0.3-1.2 0.3-2.5c0-6.6-5.3-11.9-11.8-11.9-2 0-3.8 0.5-5.4 1.3-2.7-3.8-7.1-6.4-12.2-6.4-4.6 0-8.7 2.2-11.4 5.5q-1.5-0.4-3.1-0.4c-6.2 0-11.2 4.8-11.8 10.8-3.2 2.4-5.3 6.2-5.3 10.5 0 7.2 5.8 13 13 13 3.1 0 5.9-1.1 8.1-2.9 2.2 4.2 6.6 7.2 11.6 7.2 4.9 0 9.1-2.7 11.3-6.7 1.6 0.7 3.2 1 5 1 7.1 0 13-5.8 13-13 0-2-0.5-3.8-1.3-5.5z"/>
						<path id="&lt;Path&gt;" class="s16" d="m145 425c-1.4 0-2.6 0.5-3.7 1.2-2.2-2.3-5.3-3.7-8.7-3.7-5.2 0-9.6 3.2-11.4 7.7-1.6 0.1-3.1 0.4-4.5 1-2.2-2.6-5.6-4.2-9.3-4.2-2.8 0-5.4 0.9-7.5 2.6-1.4-2.7-4.2-4.6-7.5-4.6-4.6 0-8.4 3.8-8.4 8.5 0 4.7 3.8 8.4 8.4 8.4q1.6 0 3.1-0.5c1 5.6 6 9.9 11.9 9.9 1.7 0 3.4-0.3 4.8-1 2.3 2.6 5.6 4.3 9.3 4.3 5.2 0 9.6-3.2 11.3-7.8 5.4-0.1 9.9-3.6 11.4-8.5 0.3 0 0.5 0.1 0.8 0.1 3.7 0 6.7-3 6.7-6.7 0-3.7-3-6.7-6.7-6.7z"/>
						<path id="&lt;Path&gt;" class="s17" d="m139 399.6q-0.5 0.1-0.9 0.1c-1.5-2.4-4.1-4.1-7.2-4.1-1.6 0-3.1 0.5-4.4 1.4q0.2-1.2 0.2-2.5c0-6.6-5.3-11.9-11.9-11.9-6.2 0-11.2 4.7-11.8 10.7q-1.5-0.6-3.2-0.6c-4.6 0-8.3 3.7-8.3 8.3 0 4.7 3.7 8.4 8.3 8.4q0.3 0 0.5 0-0.2 0.8-0.2 1.7c0 4.6 3.8 8.3 8.4 8.3 4.3 0 7.9-3.4 8.3-7.6q1.4 0.5 3 0.5c2.1 0 4.1-0.8 5.6-2.1 1.4 1.3 3.4 2.1 5.5 2.1 2 0 3.8-0.6 5.2-1.7 0.8 0.5 1.8 0.8 2.9 0.8 3.2 0 5.8-2.7 5.8-5.9 0-3.2-2.6-5.9-5.8-5.9z"/>
					</g>
					<g id="&lt;Group&gt;">
						<path id="&lt;Path&gt;" class="s12" d="m121 469.9c-6.8 0-12.4-5.6-12.4-12.5 0-6.9 5.6-12.4 12.4-12.4 6.9 0 12.5 5.5 12.5 12.4 0 6.9-5.6 12.5-12.5 12.5z"/>
						<path id="&lt;Path&gt;" class="s12" d="m127.7 452.2q0.3-1.3 0.3-2.7c0-6.8-5.5-12.3-12.3-12.3-2 0-3.9 0.5-5.6 1.4-2.7-4-7.3-6.7-12.6-6.7-4.8 0-9.1 2.3-11.9 5.7q-1.5-0.4-3.2-0.4c-6.4 0-11.6 4.9-12.2 11.2-3.4 2.5-5.6 6.4-5.6 10.9 0 7.5 6.1 13.5 13.5 13.5 3.2 0 6.2-1.1 8.5-3 2.2 4.4 6.8 7.4 12 7.4 5.1 0 9.5-2.8 11.8-6.8 1.6 0.6 3.3 1 5.1 1 7.4 0 13.5-6.1 13.5-13.5 0-2.1-0.5-4-1.3-5.7z"/>
						<path id="&lt;Path&gt;" class="s12" d="m105.8 445.1q0.3-1.3 0.3-2.7c0-6.7-5.5-12.3-12.3-12.3-2 0-3.9 0.5-5.6 1.4-2.7-4-7.3-6.6-12.6-6.6-4.8 0-9.1 2.2-11.9 5.7q-1.5-0.4-3.1-0.5c-6.5 0-11.7 5-12.3 11.3-3.4 2.4-5.6 6.4-5.6 10.9 0 7.4 6.1 13.5 13.5 13.5 3.3 0 6.2-1.2 8.5-3.1 2.3 4.4 6.8 7.5 12.1 7.5 5 0 9.4-2.8 11.7-6.9 1.6 0.6 3.3 1 5.1 1 7.5 0 13.5-6 13.5-13.5 0-2-0.5-4-1.3-5.7z"/>
						<path id="&lt;Path&gt;" class="s16" d="m119.1 458.9c-1.6 0-3.1 0.5-4.4 1.3-2.6-2.7-6.2-4.3-10.3-4.3-6.1 0-11.3 3.8-13.3 9.1-1.9 0.1-3.7 0.5-5.4 1.2-2.6-3.1-6.5-5.1-10.9-5.1-3.4 0-6.4 1.2-8.9 3.1-1.7-3.1-5-5.3-8.8-5.3-5.5 0-10 4.4-10 10 0 5.5 4.5 9.9 10 9.9 1.3 0 2.5-0.2 3.6-0.7 1.2 6.7 7.1 11.8 14.1 11.8 2 0 3.9-0.4 5.7-1.2 2.6 3.1 6.5 5.1 10.9 5.1 6.1 0 11.3-3.9 13.4-9.2 6.3-0.1 11.6-4.3 13.4-10.1 0.3 0 0.6 0.1 0.9 0.1 4.3 0 7.8-3.5 7.8-7.9 0-4.3-3.5-7.8-7.8-7.8z"/>
						<path id="&lt;Path&gt;" class="s17" d="m122.3 434.6q-0.6 0-1.1 0.1c-1.9-3.2-5.3-5.3-9.3-5.3-2.1 0-4 0.7-5.7 1.7q0.3-1.5 0.3-3.2c0-8.4-6.8-15.3-15.3-15.3-7.9 0-14.5 6.1-15.2 13.8-1.3-0.5-2.6-0.8-4-0.8-6 0-10.8 4.8-10.8 10.8 0 5.9 4.8 10.7 10.8 10.7q0.3 0 0.5 0-0.2 1-0.2 2.1c0 6 4.8 10.8 10.7 10.8 5.7 0 10.3-4.4 10.7-9.9 1.2 0.5 2.5 0.8 3.9 0.8 2.8 0 5.3-1.1 7.2-2.8 1.9 1.7 4.4 2.8 7.1 2.8 2.5 0 4.8-0.9 6.7-2.3 1.1 0.6 2.3 1 3.7 1 4.1 0 7.5-3.3 7.5-7.5 0-4.2-3.4-7.5-7.5-7.5z"/>
					</g>
					<g id="&lt;Group&gt;">
						<path id="&lt;Path&gt;" class="s12" d="m111.5 466.9c-6.9 0-12.5-5.6-12.5-12.5 0-6.9 5.6-12.4 12.5-12.4 6.9 0 12.4 5.5 12.4 12.4 0 6.9-5.5 12.5-12.4 12.5z"/>
						<path id="&lt;Path&gt;" class="s12" d="m104.8 449.1q-0.3-1.2-0.3-2.6c0-6.8 5.5-12.3 12.3-12.3 2 0 3.9 0.5 5.6 1.3 2.7-4 7.4-6.6 12.6-6.6 4.8 0 9.1 2.2 11.9 5.7q1.5-0.4 3.2-0.4c6.4 0 11.7 4.9 12.2 11.2 3.4 2.4 5.6 6.4 5.6 10.9 0 7.5-6.1 13.5-13.5 13.5-3.2 0-6.2-1.1-8.5-3-2.2 4.4-6.8 7.4-12 7.4-5.1 0-9.5-2.8-11.8-6.9-1.5 0.7-3.3 1-5.1 1-7.4 0-13.5-6-13.5-13.5 0-2 0.5-3.9 1.3-5.7z"/>
						<path id="&lt;Path&gt;" class="s12" d="m126.7 442.1q-0.3-1.3-0.3-2.7c0-6.8 5.5-12.3 12.3-12.3 2 0 3.9 0.5 5.6 1.4 2.7-4 7.3-6.6 12.6-6.6 4.8 0 9.1 2.2 11.9 5.7q1.5-0.5 3.1-0.5c6.5 0 11.7 5 12.3 11.2 3.4 2.5 5.6 6.5 5.6 10.9 0 7.5-6.1 13.5-13.5 13.5-3.2 0-6.2-1.1-8.5-3-2.2 4.4-6.8 7.4-12 7.4-5.1 0-9.5-2.7-11.8-6.8-1.6 0.6-3.3 1-5.1 1-7.5 0-13.5-6.1-13.5-13.5 0-2.1 0.5-4 1.3-5.7z"/>
						<path id="&lt;Path&gt;" class="s16" d="m113.4 455.9c1.6 0 3.1 0.5 4.4 1.3 2.6-2.7 6.2-4.4 10.3-4.4 6.1 0 11.3 3.8 13.4 9.2 1.9 0 3.7 0.4 5.3 1.2 2.6-3.1 6.5-5.1 10.9-5.1 3.4 0 6.4 1.2 8.9 3.1 1.7-3.2 5-5.3 8.8-5.3 5.5 0 10 4.4 10 9.9 0 5.5-4.5 10-10 10-1.2 0-2.5-0.2-3.6-0.7-1.2 6.7-7 11.8-14.1 11.8-2 0-3.9-0.5-5.7-1.2-2.6 3.1-6.5 5-10.9 5-6.1 0-11.3-3.8-13.3-9.1-6.4-0.2-11.7-4.4-13.5-10.1-0.3 0-0.6 0.1-0.9 0.1-4.3 0-7.8-3.5-7.8-7.9 0-4.3 3.5-7.8 7.8-7.8z"/>
						<path id="&lt;Path&gt;" class="s17" d="m110.2 431.5q0.6 0.1 1.2 0.2c1.8-3.2 5.2-5.3 9.2-5.3 2.1 0 4.1 0.6 5.7 1.7q-0.3-1.5-0.3-3.2c0-8.4 6.8-15.3 15.3-15.3 7.9 0 14.5 6.1 15.2 13.8 1.3-0.5 2.6-0.8 4-0.8 6 0 10.8 4.8 10.8 10.8 0 5.9-4.8 10.7-10.8 10.7q-0.2 0-0.5 0 0.2 1 0.2 2.1c0 5.9-4.8 10.7-10.7 10.7-5.7 0-10.3-4.3-10.7-9.8-1.2 0.5-2.5 0.8-3.9 0.8-2.7 0-5.3-1.1-7.2-2.8-1.9 1.7-4.4 2.8-7.1 2.8-2.5 0-4.8-0.9-6.6-2.3-1.1 0.6-2.4 1-3.8 1-4.1 0-7.5-3.4-7.5-7.5 0-4.2 3.4-7.6 7.5-7.6z"/>
					</g>
					<g id="&lt;Group&gt;">
						<path id="&lt;Path&gt;" class="s1" d="m121.5 531.4l-3.5-7.4c-1.5-3-3.5-5.6-5.9-7.9l-3.2-2.9c-0.9-0.8 0-2.2 1.1-1.8 4.5 1.9 8.5 5 11.3 9l2.2 3.2z"/>
						<path id="&lt;Path&gt;" class="s13" d="m122.9 525.6l-0.1 0.4q0 0 0 0c0 0 0.2-0.4 0.3-0.6l0.4-1.8-2.2-3.2c-2.8-4-6.8-7.1-11.3-9-1.1-0.4-2 1-1.1 1.8l0.3 0.2q0.1 0.1 0.1 0.1c4.6 1.8 8.5 5 11.4 9z"/>
					</g>
					<g id="&lt;Group&gt;">
						<path id="&lt;Path&gt;" class="s13" d="m126.7 534.4l4.3-8.9c1.7-3.5 4-6.7 6.9-9.4l3.9-3.5c1-0.9-0.1-2.6-1.3-2.1-5.5 2.2-10.2 6-13.6 10.8l-2.6 3.7z"/>
						<path id="&lt;Path&gt;" class="s1" d="m125.1 527.4l0.1 0.5q0 0 0 0c0-0.1-0.2-0.5-0.4-0.7l-0.5-2.2 2.6-3.7c3.4-4.8 8.1-8.6 13.6-10.8 1.2-0.5 2.3 1.2 1.3 2.1l-0.4 0.3q-0.1 0-0.2 0.1c-5.4 2.2-10.1 5.9-13.5 10.7z"/>
					</g>
					<g id="&lt;Group&gt;">
						<g id="&lt;Group&gt;">
							<g id="&lt;Group&gt;">
								<g id="&lt;Group&gt;">
									<path id="&lt;Path&gt;" class="s1" d="m126.8 484.1l1.9 80.4c0.1 0.8-0.3 1.6-1.1 2.3-1.8 1.4-4.7 1.4-6.4 0-0.9-0.7-1.2-1.5-1.2-2.4l2-80.4z"/>
								</g>
							</g>
							<path id="&lt;Path&gt;" class="s13" d="m128.7 564.5l-1.9-80.4h-2.4v83.7c1.2 0 2.3-0.3 3.2-1 0.8-0.7 1.2-1.5 1.1-2.3z"/>
						</g>
					</g>
					<g id="&lt;Group&gt;">
						<path id="&lt;Path&gt;" class="s12" d="m165.3 504.6c-5.1 0-9.2-4.1-9.2-9.2 0-5.1 4.1-9.3 9.2-9.3 5.2 0 9.3 4.2 9.3 9.3 0 5.1-4.1 9.2-9.3 9.2z"/>
						<path id="&lt;Path&gt;" class="s12" d="m169.9 484.8q0.3-1.3 0.3-2.7c0-6.9-5.5-12.4-12.4-12.4-2 0-3.9 0.5-5.6 1.3-2.8-4-7.5-6.7-12.7-6.7-4.9 0-9.2 2.3-12.1 5.8q-1.5-0.4-3.2-0.4c-6.5 0-11.8 5-12.4 11.3-3.4 2.5-5.6 6.5-5.6 11 0 7.5 6.1 13.7 13.6 13.7 3.3 0 6.3-1.2 8.6-3.1 2.3 4.4 6.9 7.5 12.2 7.5 5.1 0 9.5-2.8 11.8-6.9 1.6 0.6 3.4 1 5.2 1 7.5 0 13.6-6.1 13.6-13.7 0-2-0.4-4-1.3-5.7z"/>
						<path id="&lt;Path&gt;" class="s16" d="m170.2 495.8c-1.3 0-2.4 0.4-3.4 1.1-2-2.1-4.8-3.4-7.9-3.4-4.6 0-8.6 2.9-10.2 7-1.5 0.1-2.9 0.4-4.1 0.9-2-2.3-5-3.8-8.4-3.8-2.5 0-4.9 0.9-6.8 2.3-1.3-2.4-3.8-4.1-6.7-4.1-4.3 0-7.7 3.5-7.7 7.7 0 4.2 3.4 7.6 7.7 7.6q1.4 0 2.7-0.5c1 5.1 5.4 9 10.8 9 1.6 0 3-0.3 4.4-0.9 2 2.4 5 3.9 8.3 3.9 4.7 0 8.7-3 10.3-7.1 4.8-0.1 8.9-3.3 10.2-7.7q0.4 0.1 0.8 0.1c3.3 0 6-2.7 6-6 0-3.4-2.7-6.1-6-6.1z"/>
						<path id="&lt;Path&gt;" class="s17" d="m166.4 480.1q-0.4 0.1-0.7 0.1c-1.1-1.9-3.2-3.1-5.5-3.1-1.3 0-2.5 0.3-3.5 1q0.2-1 0.2-1.9c0-5.1-4.1-9.2-9.2-9.2-4.7 0-8.6 3.6-9.1 8.3q-1.1-0.5-2.4-0.5c-3.6 0-6.5 2.9-6.5 6.4 0 3.6 2.9 6.5 6.5 6.5q0.2 0 0.3 0-0.1 0.6-0.1 1.2c0 3.6 2.9 6.5 6.4 6.5 3.4 0 6.2-2.6 6.5-5.9q1 0.4 2.3 0.4c1.6 0 3.1-0.6 4.3-1.6 1.1 1 2.6 1.6 4.3 1.6 1.5 0 2.9-0.5 4-1.3 0.6 0.4 1.4 0.6 2.2 0.6 2.5 0 4.5-2 4.5-4.5 0-2.5-2-4.6-4.5-4.6z"/>
					</g>
					<g id="&lt;Group&gt;">
						<path id="&lt;Path&gt;" class="s12" d="m141.6 486.8c-5.8 0-10.4-4.7-10.4-10.5 0-5.7 4.6-10.4 10.4-10.4 5.8 0 10.5 4.7 10.5 10.4 0 5.8-4.7 10.5-10.5 10.5z"/>
						<path id="&lt;Path&gt;" class="s12" d="m147.2 471.9q0.3-1.1 0.3-2.2c0-5.7-4.7-10.3-10.4-10.3-1.7 0-3.2 0.4-4.6 1.1-2.4-3.4-6.2-5.6-10.6-5.6-4.1 0-7.7 1.9-10 4.8q-1.3-0.3-2.7-0.3c-5.4 0-9.8 4.1-10.3 9.4-2.8 2-4.7 5.4-4.7 9.1 0 6.3 5.1 11.4 11.4 11.4 2.7 0 5.2-1 7.1-2.6 1.9 3.7 5.7 6.3 10.1 6.3 4.2 0 7.9-2.4 9.9-5.8 1.3 0.5 2.7 0.8 4.3 0.8 6.2 0 11.3-5 11.3-11.3 0-1.7-0.4-3.3-1.1-4.8z"/>
						<path id="&lt;Path&gt;" class="s16" d="m148.1 481.3c-1.2 0-2.3 0.3-3.3 0.9-1.9-1.9-4.6-3.2-7.6-3.2-4.5 0-8.3 2.8-9.9 6.8-1.4 0-2.7 0.3-3.9 0.9-2-2.3-4.8-3.8-8.1-3.8-2.5 0-4.7 0.9-6.5 2.3-1.3-2.3-3.7-3.9-6.6-3.9-4 0-7.3 3.3-7.3 7.3 0 4.1 3.3 7.4 7.3 7.4q1.5 0 2.7-0.5c0.9 4.9 5.2 8.7 10.4 8.7 1.5 0 2.9-0.3 4.2-0.9 2 2.3 4.8 3.7 8.1 3.7 4.5 0 8.3-2.8 9.9-6.7 4.6-0.1 8.6-3.2 9.9-7.5q0.3 0.1 0.7 0.1c3.2 0 5.8-2.6 5.8-5.8 0-3.2-2.6-5.8-5.8-5.8z"/>
						<path id="&lt;Path&gt;" class="s17" d="m142.8 459.1q-0.4 0-0.8 0.1c-1.2-2.1-3.5-3.5-6.2-3.5-1.4 0-2.8 0.4-3.9 1.1q0.2-1.1 0.2-2.2c0-5.7-4.6-10.3-10.3-10.3-5.4 0-9.9 4.1-10.4 9.3q-1.2-0.5-2.7-0.5c-4 0-7.3 3.2-7.3 7.3 0 4 3.3 7.2 7.3 7.2q0.2 0 0.4 0-0.2 0.7-0.2 1.5c0 4 3.3 7.3 7.3 7.3 3.8 0 6.9-3 7.3-6.7q1.2 0.5 2.6 0.5c1.9 0 3.6-0.7 4.8-1.9 1.3 1.2 3 1.9 4.9 1.9 1.7 0 3.2-0.6 4.5-1.5 0.7 0.4 1.6 0.6 2.5 0.6 2.8 0 5.1-2.2 5.1-5.1 0-2.8-2.3-5.1-5.1-5.1z"/>
					</g>
					<g id="&lt;Group&gt;">
						<path id="&lt;Path&gt;" class="s12" d="m110.3 503.7c-5.8 0-10.5-4.7-10.5-10.5 0-5.8 4.7-10.4 10.5-10.4 5.8 0 10.4 4.6 10.4 10.4 0 5.8-4.6 10.5-10.4 10.5z"/>
						<path id="&lt;Path&gt;" class="s12" d="m115.9 488.8q0.2-1.1 0.2-2.2c0-5.7-4.6-10.4-10.3-10.4-1.7 0-3.3 0.5-4.7 1.2-2.3-3.4-6.2-5.6-10.6-5.6-4 0-7.6 1.9-10 4.8q-1.3-0.4-2.6-0.4c-5.4 0-9.9 4.2-10.3 9.4-2.9 2.1-4.7 5.4-4.7 9.2 0 6.3 5.1 11.3 11.3 11.3 2.7 0 5.2-0.9 7.1-2.5 1.9 3.7 5.7 6.2 10.1 6.2 4.3 0 8-2.3 9.9-5.7 1.3 0.5 2.8 0.8 4.3 0.8 6.3 0 11.3-5.1 11.3-11.3 0-1.7-0.4-3.4-1-4.8z"/>
						<path id="&lt;Path&gt;" class="s16" d="m116.7 498.1c-1.2 0-2.3 0.4-3.2 1-1.9-2-4.6-3.2-7.6-3.2-4.5 0-8.4 2.8-9.9 6.8-1.4 0-2.7 0.3-4 0.8-1.9-2.2-4.8-3.7-8-3.7-2.5 0-4.8 0.9-6.6 2.3-1.2-2.4-3.7-4-6.5-4-4.1 0-7.4 3.3-7.4 7.4 0 4.1 3.3 7.4 7.4 7.4q1.4 0 2.6-0.5c1 4.9 5.3 8.6 10.5 8.6 1.5 0 2.9-0.3 4.2-0.8 1.9 2.3 4.8 3.7 8 3.7 4.5 0 8.4-2.8 9.9-6.8 4.7-0.1 8.6-3.2 9.9-7.4q0.4 0 0.7 0c3.2 0 5.8-2.6 5.8-5.8 0-3.2-2.6-5.8-5.8-5.8z"/>
						<path id="&lt;Path&gt;" class="s17" d="m110.2 478.9q-0.4 0-0.7 0c-1.1-1.9-3.2-3.2-5.7-3.2-1.3 0-2.5 0.4-3.5 1.1q0.2-1 0.2-2c0-5.2-4.2-9.4-9.4-9.4-4.9 0-8.9 3.7-9.4 8.5q-1.1-0.5-2.4-0.5c-3.7 0-6.6 2.9-6.6 6.6 0 3.6 2.9 6.6 6.6 6.6q0.1 0 0.3 0-0.1 0.6-0.1 1.3c0 3.6 2.9 6.6 6.6 6.6 3.4 0 6.3-2.7 6.5-6.1q1.2 0.5 2.4 0.5c1.7 0 3.3-0.6 4.4-1.7 1.2 1.1 2.7 1.7 4.4 1.7 1.6 0 3-0.5 4.1-1.4 0.7 0.4 1.5 0.6 2.3 0.6 2.6 0 4.6-2 4.6-4.6 0-2.6-2-4.6-4.6-4.6z"/>
					</g>
				</g>
			</g>
			<g id="&lt;Group&gt;">
				<g id="&lt;Group&gt;">
					<g id="&lt;Group&gt;">
						<g id="&lt;Group&gt;">
							<g id="&lt;Group&gt;">
								<path id="&lt;Path&gt;" class="s0" d="m520.9 564.4l-120.8 70.3-121.8-70.3 121-70.3z"/>
							</g>
							<g id="&lt;Group&gt;">
								<path id="&lt;Path&gt;" class="s1" d="m520.9 564.4v15.8l-120.8 70.3v-15.8z"/>
							</g>
							<g id="&lt;Group&gt;">
								<path id="&lt;Path&gt;" class="s2" d="m400.1 634.7v15.8l-121.8-70.3v-15.8z"/>
							</g>
						</g>
					</g>
					<g id="&lt;Group&gt;">
						<g id="&lt;Group&gt;">
							<g id="&lt;Group&gt;">
								<path id="&lt;Path&gt;" class="s3" d="m520.9 553.4l-120.8 70.3-121.8-70.3 121-70.3z"/>
							</g>
							<g id="&lt;Group&gt;">
								<path id="&lt;Path&gt;" class="s4" d="m520.9 553.4v15.8l-120.8 70.3v-15.8z"/>
							</g>
							<g id="&lt;Group&gt;">
								<path id="&lt;Path&gt;" class="s5" d="m400.1 623.7v15.8l-121.8-70.3v-15.8z"/>
							</g>
						</g>
					</g>
					<g id="&lt;Group&gt;">
						<g id="&lt;Group&gt;">
							<path id="&lt;Path&gt;" class="s7" d="m396.2 589.4c2.1 1.3 2.1 3.3 0 4.5-2.2 1.3-5.7 1.3-7.9 0-2.2-1.2-2.2-3.2 0-4.5 2.2-1.3 5.7-1.3 7.9 0z"/>
						</g>
						<g id="&lt;Group&gt;">
							<path id="&lt;Path&gt;" class="s7" d="m489.3 547c2.2 1.3 2.2 3.3 0 4.6-2.1 1.2-5.6 1.2-7.8 0-2.2-1.3-2.2-3.3 0-4.6 2.1-1.2 5.6-1.2 7.8 0z"/>
						</g>
						<g id="&lt;Group&gt;">
							<path id="&lt;Path&gt;" class="s7" d="m460.3 553.7c2.2 1.3 2.2 3.3 0 4.6-2.1 1.2-5.6 1.2-7.8 0-2.2-1.3-2.2-3.3 0-4.6 2.1-1.2 5.6-1.2 7.8 0z"/>
						</g>
						<g id="&lt;Group&gt;">
							<path id="&lt;Path&gt;" class="s7" d="m321.9 550.4c2.2 1.2 2.2 3.3 0.1 4.5-2.2 1.3-5.7 1.3-7.9 0-2.2-1.2-2.2-3.3 0-4.5 2.1-1.3 5.6-1.3 7.8 0z"/>
						</g>
						<g id="&lt;Group&gt;">
							<path id="&lt;Path&gt;" class="s7" d="m344.2 559.3c2.2 1.3 2.2 3.3 0.1 4.6-2.2 1.2-5.7 1.2-7.9 0-2.2-1.3-2.2-3.3 0-4.6 2.1-1.2 5.7-1.2 7.8 0z"/>
						</g>
						<g id="&lt;Group&gt;">
							<path id="&lt;Path&gt;" class="s7" d="m376.6 509.1c2.2 1.3 2.2 3.3 0.1 4.6-2.2 1.2-5.7 1.2-7.9 0-2.2-1.3-2.2-3.3 0-4.6 2.1-1.2 5.7-1.2 7.8 0z"/>
						</g>
						<g id="&lt;Group&gt;">
							<path id="&lt;Path&gt;" class="s7" d="m434.7 514.7c2.1 1.2 2.1 3.3 0 4.5-2.2 1.3-5.7 1.3-7.9 0-2.2-1.2-2.2-3.3 0-4.5 2.2-1.3 5.7-1.3 7.9 0z"/>
						</g>
						<g id="&lt;Group&gt;">
							<path id="&lt;Path&gt;" class="s7" d="m423.4 594.9c2.2 1.3 2.2 3.3 0.1 4.6-2.2 1.2-5.7 1.2-7.9 0-2.2-1.3-2.2-3.3 0-4.6 2.1-1.2 5.6-1.2 7.8 0z"/>
						</g>
					</g>
				</g>
				<path id="&lt;Path&gt;" class="s6" d="m460.9 540.9c-5.2-2.4-12.2-3.5-19-3.4-0.9-2.1-3.1-4-6.7-5.7-7-3.1-17.2-3.9-25.8-2.4q0 0 0 0c-6.7-3-17.2-3.3-24.4-0.7-10-3.8-24.8-3.6-34.2 0.7-9.8 4.5-9.8 11.7 0.1 16.2 2.4 1.1 5.2 1.9 8.1 2.5-7.4 7.2-4.5 16.1 8.6 22 16.8 7.6 43.9 7.6 60.6 0 6-2.7 9.9-6.1 11.5-9.7 7.6 0.5 15.5-0.6 21.4-3.3 9.8-4.5 9.7-11.7-0.2-16.2z"/>
				<g id="&lt;Group&gt;">
					<g id="&lt;Group&gt;">
						<g id="&lt;Group&gt;">
							<path id="&lt;Path&gt;" class="s1" d="m396.4 406.5l-3.7-4.4c-1.5-1.7-3.4-3.2-5.5-4.3l-2.8-1.6c-0.8-0.4-0.4-1.4 0.5-1.2 3.6 0.6 6.9 2.2 9.6 4.4l2.1 1.8z"/>
							<path id="&lt;Path&gt;" class="s13" d="m396.5 402.6v0.3q0 0 0 0c0-0.1 0.1-0.3 0.1-0.5v-1.2l-2.1-1.8c-2.7-2.2-6-3.8-9.6-4.4-0.9-0.2-1.3 0.8-0.5 1.2l0.2 0.2q0.1 0 0.1 0c3.6 0.6 7 2.2 9.7 4.4z"/>
						</g>
						<g id="&lt;Group&gt;">
							<path id="&lt;Path&gt;" class="s1" d="m399.3 431.7l3.7-4.4c1.5-1.7 3.4-3.2 5.5-4.4l2.8-1.5c0.8-0.4 0.4-1.4-0.5-1.2-3.6 0.6-6.9 2.1-9.6 4.4l-2.1 1.8z"/>
							<path id="&lt;Path&gt;" class="s13" d="m399.2 427.8v0.2q0 0 0 0c0 0-0.1-0.3-0.1-0.4v-1.2l2.1-1.8c2.7-2.3 6-3.8 9.6-4.4 0.9-0.2 1.3 0.8 0.5 1.2l-0.2 0.1q-0.1 0-0.1 0c-3.6 0.7-7 2.2-9.7 4.5z"/>
						</g>
						<g id="&lt;Group&gt;">
							<path id="&lt;Path&gt;" class="s1" d="m400.3 483.4l19.4-22.4 17.1-5.9c0.5-0.2 0.3-1-0.2-0.9l-15.9 2.6 1.9-16.6c0-0.2-0.3-0.2-0.3 0l-4.6 18.3-17.9 19.4z"/>
							<path id="&lt;Path&gt;" class="s13" d="m436.6 454.2l-6 1-11.1 3.8-19.4 22.4 0.2 2 19.4-22.4 17.1-5.9c0.5-0.2 0.3-1-0.2-0.9z"/>
						</g>
						<g id="&lt;Group&gt;">
							<path id="&lt;Path&gt;" class="s1" d="m394.9 469.8l-19.4-22.3-17.1-6c-0.6-0.2-0.4-1 0.2-0.9l15.8 2.7-1.8-16.6c-0.1-0.2 0.2-0.3 0.3-0.1l4.6 18.3 17.9 19.5z"/>
							<path id="&lt;Path&gt;" class="s13" d="m358.6 440.6l6 1 11.1 3.9 19.3 22.4-0.1 1.9-19.4-22.3-17.1-6c-0.6-0.2-0.4-1 0.2-0.9z"/>
						</g>
						<g id="&lt;Group&gt;">
							<path id="&lt;Path&gt;" class="s1" d="m394.7 508.4l-3.7-7.8c-1.5-3.1-3.6-5.9-6.1-8.2l-3.4-3.1c-0.9-0.8 0.1-2.2 1.2-1.8 4.7 2 8.8 5.2 11.8 9.4l2.3 3.3z"/>
							<path id="&lt;Path&gt;" class="s13" d="m396.1 502.3l-0.1 0.4q0 0 0 0c0 0 0.2-0.4 0.3-0.6l0.5-1.9-2.3-3.3c-3-4.2-7.1-7.4-11.8-9.4-1.1-0.4-2.1 1-1.2 1.8l0.3 0.3q0.1 0 0.2 0c4.8 2 8.8 5.2 11.8 9.4z"/>
						</g>
						<g id="&lt;Group&gt;">
							<g id="&lt;Group&gt;">
								<g id="&lt;Group&gt;">
									<g id="&lt;Group&gt;">
										<path id="&lt;Path&gt;" class="s1" d="m397.7 366.6c1.1 0 2 0.9 2 2l3.5 184.8c0 1.1-0.4 2.2-1.5 3-2.2 1.8-6 1.8-8.2 0-1.1-0.8-1.6-1.9-1.5-3l3.6-184.8c0.1-1.1 1-2 2.1-2z"/>
									</g>
								</g>
								<path id="&lt;Path&gt;" class="s13" d="m403.2 553.4l-3.5-184.8c0-1.1-0.9-2-2-2h-0.1v191.2c1.5 0 3-0.5 4.1-1.4 1.1-0.8 1.5-1.9 1.5-3z"/>
							</g>
						</g>
					</g>
					<g id="&lt;Group&gt;">
						<path id="&lt;Path&gt;" class="s12" d="m390.9 398.1c-3.4 0-6.1-2.7-6.1-6.1 0-3.4 2.7-6.2 6.1-6.2 3.4 0 6.1 2.8 6.1 6.2 0 3.4-2.7 6.1-6.1 6.1z"/>
						<path id="&lt;Path&gt;" class="s12" d="m394.2 389.4q0.1-0.7 0.1-1.3c0-3.4-2.7-6.1-6-6.1-1 0-2 0.3-2.8 0.7-1.3-2-3.6-3.3-6.2-3.3-2.3 0-4.5 1.1-5.8 2.8q-0.8-0.2-1.6-0.2c-3.2 0-5.7 2.5-6 5.5-1.7 1.2-2.8 3.2-2.8 5.4 0 3.7 3 6.6 6.7 6.6 1.6 0 3-0.5 4.2-1.4 1 2.1 3.3 3.6 5.9 3.6 2.5 0 4.6-1.4 5.8-3.4q1.1 0.5 2.5 0.5c3.6 0 6.6-3 6.6-6.6 0-1-0.2-2-0.6-2.8z"/>
						<path id="&lt;Path&gt;" class="s16" d="m394.7 394.9c-0.7 0-1.4 0.2-1.9 0.5-1.2-1.1-2.7-1.9-4.5-1.9-2.6 0-4.9 1.7-5.8 4q-1.2 0-2.3 0.5c-1.1-1.3-2.8-2.2-4.7-2.2-1.5 0-2.8 0.5-3.9 1.4-0.7-1.4-2.1-2.3-3.8-2.3-2.4 0-4.3 1.9-4.3 4.3 0 2.4 1.9 4.3 4.3 4.3q0.9 0 1.6-0.3c0.5 2.9 3 5.1 6.1 5.1q1.3 0 2.4-0.5c1.2 1.3 2.9 2.2 4.8 2.2 2.6 0 4.9-1.7 5.8-4 2.7-0.1 5-1.9 5.8-4.4q0.2 0 0.4 0.1c1.8 0 3.4-1.6 3.4-3.4 0-1.9-1.6-3.4-3.4-3.4z"/>
						<path id="&lt;Path&gt;" class="s17" d="m390.9 383.6q-0.3 0-0.5 0c-0.6-1.1-1.9-1.9-3.3-1.9-0.7 0-1.4 0.2-2 0.6q0.1-0.5 0.1-1.1c0-3.1-2.5-5.5-5.5-5.5-2.9 0-5.2 2.2-5.5 4.9q-0.7-0.2-1.5-0.2c-2.1 0-3.8 1.7-3.8 3.8 0 2.2 1.7 3.9 3.8 3.9q0.1 0 0.2 0 0 0.4 0 0.8c0 2.1 1.7 3.8 3.8 3.8 2.1 0 3.7-1.5 3.9-3.5q0.6 0.2 1.4 0.2c1 0 1.9-0.3 2.5-0.9 0.7 0.6 1.6 0.9 2.6 0.9 0.9 0 1.8-0.3 2.4-0.8q0.6 0.4 1.4 0.4c1.5 0 2.7-1.2 2.7-2.7 0-1.5-1.2-2.7-2.7-2.7z"/>
					</g>
					<g id="&lt;Group&gt;">
						<path id="&lt;Path&gt;" class="s12" d="m426 413.1c-2.9 0-5.3-2.3-5.3-5.2 0-2.9 2.4-5.2 5.3-5.2 2.9 0 5.2 2.3 5.2 5.2 0 2.9-2.3 5.2-5.2 5.2z"/>
						<path id="&lt;Path&gt;" class="s12" d="m428.8 405.7q0.1-0.6 0.1-1.1c0-2.9-2.3-5.2-5.2-5.2-0.8 0-1.6 0.2-2.3 0.6-1.2-1.7-3.1-2.8-5.3-2.8-2 0-3.8 0.9-5 2.4q-0.6-0.2-1.3-0.2c-2.7 0-4.9 2.1-5.2 4.7-1.4 1-2.3 2.7-2.3 4.6 0 3.1 2.5 5.6 5.6 5.6 1.4 0 2.6-0.4 3.6-1.2 0.9 1.8 2.9 3.1 5.1 3.1 2.1 0 3.9-1.2 4.9-2.9q1 0.4 2.1 0.4c3.2 0 5.7-2.5 5.7-5.6q0-1.3-0.5-2.4z"/>
						<path id="&lt;Path&gt;" class="s16" d="m429.2 410.3c-0.6 0-1.2 0.2-1.6 0.5-1-1-2.3-1.6-3.8-1.6-2.3 0-4.2 1.4-5 3.4q-1 0-1.9 0.4c-1-1.1-2.5-1.8-4.1-1.8-1.2 0-2.4 0.4-3.3 1.1-0.6-1.2-1.8-2-3.2-2-2.1 0-3.7 1.7-3.7 3.7 0 2.1 1.6 3.7 3.7 3.7q0.7 0 1.3-0.2c0.5 2.4 2.6 4.3 5.2 4.3q1.1 0 2.1-0.4c1 1.1 2.4 1.8 4 1.8 2.3 0 4.2-1.4 5-3.4 2.3 0 4.3-1.6 5-3.7q0.1 0 0.3 0.1c1.6 0 2.9-1.3 2.9-3 0-1.6-1.3-2.9-2.9-2.9z"/>
						<path id="&lt;Path&gt;" class="s17" d="m425.9 400.7q-0.1 0-0.3 0c-0.6-0.9-1.6-1.6-2.8-1.6-0.7 0-1.3 0.2-1.8 0.6q0.1-0.5 0.1-1c0-2.6-2.1-4.7-4.7-4.7-2.5 0-4.5 1.8-4.7 4.2q-0.6-0.2-1.2-0.2c-1.8 0-3.3 1.4-3.3 3.3 0 1.8 1.5 3.3 3.3 3.3q0.1 0 0.1 0 0 0.3 0 0.6c0 1.8 1.5 3.3 3.3 3.3 1.7 0 3.1-1.3 3.3-3q0.5 0.2 1.2 0.2c0.8 0 1.6-0.3 2.2-0.8 0.5 0.5 1.3 0.8 2.2 0.8 0.7 0 1.4-0.2 2-0.7q0.5 0.3 1.1 0.3c1.3 0 2.4-1 2.4-2.3 0-1.3-1.1-2.3-2.4-2.3z"/>
					</g>
					<g id="&lt;Group&gt;">
						<path id="&lt;Path&gt;" class="s12" d="m390.5 470.4q0.2-0.8 0.2-1.6c0-4.2-3.4-7.5-7.5-7.5-1.3 0-2.4 0.3-3.4 0.8-1.7-2.5-4.5-4.1-7.7-4.1-3 0-5.6 1.4-7.3 3.5q-0.9-0.2-1.9-0.2c-3.3 0-6 2-7.1 4.9-0.9-0.8-2.2-1.3-3.5-1.3-1.8 0-3.4 0.8-4.4 2.1q-1.1-0.4-2.3-0.5c-3.1 0-5.7 2.6-5.7 5.7 0 2.4 1.5 4.5 3.6 5.3q0 0.1 0 0.2c0 3.1 2.6 5.7 5.7 5.7 2.2 0 4.1-1.3 5-3 1.5 1.6 3.7 2.6 6 2.6 2 0 3.8-0.7 5.2-1.9 1.4 2.7 4.2 4.6 7.4 4.6 3 0 5.7-1.7 7.1-4.2q1.5 0.6 3.1 0.6c4.6 0 8.3-3.7 8.3-8.3 0-1.2-0.3-2.4-0.8-3.4z"/>
						<path id="&lt;Path&gt;" class="s12" d="m386.4 481.2c-4.2 0-7.6-3.4-7.6-7.6 0-4.2 3.4-7.6 7.6-7.6 4.2 0 7.6 3.4 7.6 7.6 0 4.2-3.4 7.6-7.6 7.6z"/>
						<path id="&lt;Path&gt;" class="s16" d="m391.1 477.2c-0.9 0-1.7 0.2-2.3 0.7-1.4-1.5-3.4-2.4-5.6-2.4-3.2 0-6 2.1-7.1 5q-1.6 0-2.9 0.6c-1.4-1.7-3.5-2.7-5.9-2.7-1.8 0-3.4 0.6-4.7 1.6-0.9-1.7-2.7-2.8-4.8-2.8-2.9 0-5.3 2.4-5.3 5.3 0 3 2.4 5.4 5.3 5.4q1 0 1.9-0.4c0.7 3.6 3.8 6.3 7.6 6.3q1.7 0 3.1-0.6c1.4 1.6 3.5 2.7 5.8 2.7 3.3 0 6.1-2.1 7.2-4.9 3.4-0.1 6.2-2.4 7.2-5.5q0.2 0.1 0.5 0.1c2.3 0 4.2-1.9 4.2-4.2 0-2.4-1.9-4.2-4.2-4.2z"/>
						<path id="&lt;Path&gt;" class="s17" d="m386.4 463.2q-0.3 0-0.5 0c-0.9-1.4-2.4-2.3-4.1-2.3-1 0-1.9 0.3-2.6 0.7q0.1-0.7 0.1-1.4c0-3.2-2.2-5.9-5.2-6.6-0.7-2.3-2.7-3.9-5.2-3.9-2.5 0-4.6 1.7-5.1 4q-0.7-0.2-1.4-0.2c-3.2 0-5.8 2.6-5.8 5.8q0 0.1 0 0.3c-2.8 0.1-5.1 2.4-5.1 5.3 0 2.9 2.4 5.3 5.4 5.3 1.8 0 3.4-0.9 4.4-2.2 0.7 0.5 1.6 0.8 2.6 0.8q0.1 0 0.3 0-0.1 0.4-0.1 0.9c0 2.7 2.1 4.8 4.8 4.8 2.5 0 4.5-1.9 4.7-4.4q0.8 0.3 1.8 0.3c1.2 0 2.3-0.4 3.2-1.2 0.8 0.8 1.9 1.3 3.2 1.3 1.1 0 2.1-0.4 2.9-1.1 0.5 0.3 1.1 0.5 1.7 0.5 1.8 0 3.3-1.5 3.3-3.4 0-1.8-1.5-3.3-3.3-3.3z"/>
					</g>
					<g id="&lt;Group&gt;">
						<path id="&lt;Path&gt;" class="s12" d="m384.1 419.6q0.1-0.9 0-1.8c-0.8-4.7-5.2-7.9-9.8-7.1-1.4 0.2-2.7 0.7-3.7 1.5-2.3-2.4-5.8-3.7-9.4-3.1-3.3 0.5-6 2.5-7.5 5.2q-1.1-0.1-2.3 0c-4.4 0.7-7.4 4.7-7.1 9.1-2.1 2-3.1 5-2.6 8.1 0.8 5.1 5.6 8.6 10.7 7.7 2.2-0.3 4.1-1.4 5.5-3 2 2.8 5.5 4.4 9.1 3.8 3.4-0.6 6.1-2.9 7.3-6 1.1 0.3 2.3 0.3 3.6 0.1 5.1-0.8 8.6-5.6 7.7-10.7-0.2-1.4-0.7-2.7-1.5-3.8z"/>
						<path id="&lt;Path&gt;" class="s16" d="m379.3 424.9c-2.8 0.5-5 2.3-6 4.7-0.8-0.3-1.6-0.4-2.5-0.3-1.7 0.3-3 1.4-3.7 2.8-0.9-0.3-1.9-0.4-2.9-0.3-1.5 0.3-2.8 1.1-3.7 2.2-1.9-1.4-4.3-2.1-6.9-1.7-1.1 0.2-2.2 0.6-3.2 1.2-1.1-2.2-3.5-3.6-6.1-3.1-3.2 0.5-5.4 3.5-4.9 6.7 0.5 3.1 3.3 5.2 6.4 4.9q0 0.5 0.1 1c0.8 5.1 5.6 8.5 10.7 7.7 3.9-0.6 6.8-3.6 7.6-7.2q0.9 0.1 1.9 0c2.3-0.4 4.1-2.2 4.7-4.4q0.8 0.2 1.6 0c0.9-0.1 1.7-0.5 2.4-1.1 1.7 1.8 4.3 2.8 6.9 2.3 4.3-0.6 7.2-4.6 6.5-8.9-0.7-4.2-4.7-7.1-8.9-6.5z"/>
						<path id="&lt;Path&gt;" class="s17" d="m374.7 408.4c-1 0.2-1.9 0.6-2.7 1.2-1.3-2.2-3.9-3.4-6.5-3-1.5 0.2-2.7 0.9-3.6 1.8-1.3-0.7-2.9-1.1-4.5-0.9-3 0.5-5.2 3.1-5.4 6.1-1.2-0.6-2.5-0.8-3.8-0.6-3.4 0.6-5.7 3.8-5.2 7.2 0.6 3.4 3.8 5.8 7.2 5.2 1.6-0.2 2.9-1.1 3.9-2.2 0.8 0.6 1.9 0.9 3.1 0.7 0.8-0.2 1.6-0.5 2.1-1 1.5 2.8 4.6 4.5 7.9 4 3.3-0.6 5.8-3.3 6.2-6.5 1 0.4 2.1 0.6 3.3 0.4 3.4-0.5 5.8-3.8 5.2-7.2-0.5-3.4-3.8-5.7-7.2-5.2z"/>
					</g>
					<g id="&lt;Group&gt;">
						<path id="&lt;Path&gt;" class="s12" d="m452.9 435.7c-0.4-4.4-4-7.8-8.5-7.8q-1.1 0-2.2 0.3c-1.9-2.4-4.9-4-8.2-4-3.7 0-6.9 1.9-8.8 4.6-1.2-0.6-2.5-0.9-3.9-0.9-3.3 0-6.2 1.9-7.6 4.7q-1.5-0.7-3.2-0.7c-4.7 0-8.6 3.9-8.6 8.6 0 4.8 3.9 8.6 8.6 8.6 1.4 0 2.6-0.3 3.8-0.8 1.7 2 4.3 3.3 7.2 3.3 1.2 0 2.4-0.2 3.5-0.7 1.6 2.9 4.7 4.8 8.2 4.8 3.6 0 6.8-2.1 8.3-5.2 1.6 1.3 3.7 2.1 5.9 2.1 5.2 0 9.4-4.2 9.4-9.3 0-3.2-1.5-5.9-3.9-7.6z"/>
						<path id="&lt;Path&gt;" class="s17" d="m420.5 425.7c1 0 2 0.3 2.9 0.7 1-2.3 3.3-3.9 6-3.9 1.4 0 2.7 0.4 3.8 1.2 1.2-0.9 2.6-1.6 4.2-1.6 3.1 0 5.7 2.2 6.4 5.1 1-0.7 2.3-1.1 3.6-1.1 3.5 0 6.3 2.8 6.3 6.3 0 3.4-2.8 6.2-6.3 6.2-1.6 0-3-0.6-4.2-1.6-0.7 0.8-1.8 1.2-2.9 1.2-0.9 0-1.7-0.2-2.3-0.6-1 3-3.8 5.2-7.1 5.2-3.4 0-6.3-2.3-7.2-5.4-0.9 0.5-2 0.9-3.2 0.9-3.5 0-6.3-2.8-6.3-6.3 0-3.5 2.8-6.3 6.3-6.3z"/>
						<path id="&lt;Path&gt;" class="s16" d="m459.9 448.5c0-3.3-2.6-5.9-5.8-5.9-2.7 0-4.9 1.7-5.6 4-1.1-0.4-2.2-0.6-3.4-0.6-2.5 0-4.8 1-6.5 2.7-1.1-0.9-2.5-1.5-4-1.5-1 0-2 0.3-2.8 0.7-0.9-1.3-2.4-2.1-4.1-2.1-0.9 0-1.7 0.2-2.4 0.6-1.4-2.2-3.9-3.6-6.6-3.6-3.3 0-6.1 2-7.3 4.8-0.8-0.4-1.8-0.7-2.8-0.7-3.6 0-6.5 3-6.5 6.6 0 3.6 2.9 6.6 6.5 6.6 2.4 0 4.4-1.3 5.6-3.1 1.3 0.8 2.8 1.4 4.5 1.4 2.6 0 5-1.4 6.4-3.4 0.8 0.4 1.6 0.7 2.6 0.7q0.8 0 1.5-0.3c0.9 2.1 3 3.6 5.4 3.6q1 0 1.9-0.3c1.3 3.4 4.7 5.9 8.6 5.9 5.2 0 9.3-4.2 9.3-9.3q0-0.5 0-1c3.1-0.1 5.5-2.7 5.5-5.8z"/>
					</g>
				</g>
			</g>
			<g id="&lt;Group&gt;">
				<g id="&lt;Group&gt;">
					<g id="&lt;Group&gt;">
						<g id="&lt;Group&gt;">
							<g id="&lt;Group&gt;">
								<g id="&lt;Group&gt;">
									<path id="&lt;Path&gt;" class="s0" d="m794 564.4l-120.8 70.3-121.8-70.3 121-70.3z"/>
								</g>
								<g id="&lt;Group&gt;">
									<path id="&lt;Path&gt;" class="s1" d="m794 564.4v15.8l-120.8 70.3v-15.8z"/>
								</g>
								<g id="&lt;Group&gt;">
									<path id="&lt;Path&gt;" class="s2" d="m673.2 634.7v15.8l-121.8-70.3v-15.8z"/>
								</g>
							</g>
						</g>
						<g id="&lt;Group&gt;">
							<g id="&lt;Group&gt;">
								<g id="&lt;Group&gt;">
									<path id="&lt;Path&gt;" class="s3" d="m794 553.4l-120.8 70.3-121.8-70.3 121-70.3z"/>
								</g>
								<g id="&lt;Group&gt;">
									<path id="&lt;Path&gt;" class="s4" d="m794 553.4v15.8l-120.8 70.3v-15.8z"/>
								</g>
								<g id="&lt;Group&gt;">
									<path id="&lt;Path&gt;" class="s5" d="m673.2 623.7v15.8l-121.8-70.3v-15.8z"/>
								</g>
							</g>
						</g>
						<g id="&lt;Group&gt;">
							<g id="&lt;Group&gt;">
								<path id="&lt;Path&gt;" class="s7" d="m669.2 589.4c2.2 1.3 2.2 3.3 0 4.5-2.1 1.3-5.6 1.3-7.8 0-2.2-1.2-2.2-3.2 0-4.5 2.1-1.3 5.6-1.3 7.8 0z"/>
							</g>
							<g id="&lt;Group&gt;">
								<path id="&lt;Path&gt;" class="s7" d="m762.4 547c2.2 1.3 2.2 3.3 0 4.6-2.2 1.2-5.7 1.2-7.8 0-2.2-1.3-2.2-3.3-0.1-4.6 2.2-1.2 5.7-1.2 7.9 0z"/>
							</g>
							<g id="&lt;Group&gt;">
								<path id="&lt;Path&gt;" class="s7" d="m733.4 553.7c2.2 1.3 2.2 3.3 0 4.6-2.2 1.2-5.7 1.2-7.9 0-2.1-1.3-2.1-3.3 0-4.6 2.2-1.2 5.7-1.2 7.9 0z"/>
							</g>
							<g id="&lt;Group&gt;">
								<path id="&lt;Path&gt;" class="s7" d="m595 550.4c2.2 1.2 2.2 3.3 0 4.5-2.1 1.3-5.7 1.3-7.8 0-2.2-1.2-2.2-3.3-0.1-4.5 2.2-1.3 5.7-1.3 7.9 0z"/>
							</g>
							<g id="&lt;Group&gt;">
								<path id="&lt;Path&gt;" class="s7" d="m617.3 559.3c2.2 1.3 2.2 3.3 0 4.6-2.1 1.2-5.7 1.2-7.8 0-2.2-1.3-2.2-3.3-0.1-4.6 2.2-1.2 5.7-1.2 7.9 0z"/>
							</g>
							<g id="&lt;Group&gt;">
								<path id="&lt;Path&gt;" class="s7" d="m649.7 509.1c2.2 1.3 2.2 3.3 0 4.6-2.1 1.2-5.7 1.2-7.8 0-2.2-1.3-2.2-3.3-0.1-4.6 2.2-1.2 5.7-1.2 7.9 0z"/>
							</g>
							<g id="&lt;Group&gt;">
								<path id="&lt;Path&gt;" class="s7" d="m707.7 514.7c2.2 1.2 2.2 3.3 0 4.5-2.1 1.3-5.6 1.3-7.8 0-2.2-1.2-2.2-3.3 0-4.5 2.1-1.3 5.6-1.3 7.8 0z"/>
							</g>
							<g id="&lt;Group&gt;">
								<path id="&lt;Path&gt;" class="s7" d="m696.5 594.9c2.2 1.3 2.2 3.3 0 4.6-2.1 1.2-5.7 1.2-7.8 0-2.2-1.3-2.2-3.3-0.1-4.6 2.2-1.2 5.7-1.2 7.9 0z"/>
							</g>
						</g>
					</g>
					<g id="&lt;Group&gt;">
						<g id="&lt;Group&gt;">
							<path id="&lt;Path&gt;" class="s6" d="m703.3 538.9c16.8 9.7 16.9 25.4 0.2 35.1-16.8 9.8-44 9.8-60.8 0-16.8-9.7-16.9-25.4-0.2-35.1 16.7-9.8 43.9-9.8 60.8 0z"/>
						</g>
						<g id="&lt;Group&gt;">
							<path id="&lt;Path&gt;" class="s6" d="m669 533.2c10.5 6 10.6 15.8 0.2 21.9-10.5 6-27.4 6-37.9 0-10.5-6.1-10.5-15.9-0.1-21.9 10.4-6.1 27.4-6.1 37.8 0z"/>
						</g>
						<g id="&lt;Group&gt;">
							<path id="&lt;Path&gt;" class="s6" d="m715.9 539.1c7.4 4.3 7.5 11.2 0.1 15.5-7.4 4.3-19.4 4.3-26.8 0-7.4-4.3-7.5-11.2-0.1-15.5 7.4-4.3 19.4-4.3 26.8 0z"/>
						</g>
						<g id="&lt;Group&gt;">
							<path id="&lt;Path&gt;" class="s6" d="m654.1 555.3c7.5 4.3 7.5 11.3 0.1 15.6-7.4 4.3-19.4 4.3-26.8 0-7.4-4.3-7.5-11.3-0.1-15.5 7.4-4.3 19.4-4.3 26.8-0.1z"/>
						</g>
						<g id="&lt;Group&gt;">
							<path id="&lt;Path&gt;" class="s6" d="m669.1 564.3c7.4 4.3 7.5 11.2 0.1 15.5-7.4 4.3-19.4 4.3-26.8 0-7.4-4.3-7.5-11.2-0.1-15.5 7.4-4.3 19.4-4.3 26.8 0z"/>
						</g>
					</g>
					<g id="&lt;Group&gt;">
						<g id="&lt;Group&gt;">
							<path id="&lt;Path&gt;" class="s13" d="m670.1 464.8c-0.8-0.6-7.7-6.2-9.1-6.7q-2.1-0.9-4-2.2-1.8-1.4-3.3-3.2c-2.1-2.3-3.6-5.2-4.7-8.3-1.1-3-1.8-6.3-2.1-9.6 0-0.4-0.3-0.6-0.6-0.6-0.3 0-0.5 0.3-0.6 0.6-0.1 3.5 0.2 6.9 1 10.3 0.8 3.4 2 6.7 4 9.7-4.2-1.3-8.6-2.2-13-2.7l-2.4-0.2c-0.7-0.2-1.4-0.3-2.2-0.5q-2.2-0.5-4.2-1.5-2-1-3.7-2.5-1.7-1.5-3.1-3.4c-1.8-2.5-3.1-5.5-4-8.7-0.8-3.1-1.2-6.5-1.2-9.8 0-0.3-0.3-0.6-0.6-0.6-0.3 0-0.5 0.2-0.6 0.5-0.4 3.5-0.4 6.9 0.1 10.4 0.5 3.4 1.5 6.9 3.2 10.1 0.9 1.6 2 3.1 3.2 4.5q1.9 2.1 4.3 3.7c1.5 1 3.2 1.8 5 2.5 0.8 0.3 1.7 0.6 2.6 0.9l2.7 0.6c6.2 1.4 12.2 3.8 17.5 7.2 2.7 1.6 5.2 3.5 7.6 5.5q1.7 1.5 3.3 3.2c0.6 0.6 1.1 1.1 1.6 1.7q0.3 0.4 0.7 0.8 0.2 0.2 0.3 0.4c0.1 0.1 0.2 0.3 0.2 0.3 0.6 1.2 1.5 2.1 2.5 2.6v-14.2q-0.2-0.4-0.4-0.8z"/>
							<path id="&lt;Path&gt;" class="s1" d="m669.4 473.6q-0.2-0.2-0.4-0.4-0.3-0.4-0.7-0.9c-0.4-0.5-1-1.1-1.5-1.6q-1.6-1.7-3.3-3.2c-2.4-2.1-4.9-3.9-7.6-5.6-5.3-3.3-11.3-5.7-17.6-7.1l-2.6-0.7c-0.9-0.2-1.8-0.5-2.7-0.8-1.7-0.7-3.4-1.6-5-2.6q-2.3-1.6-4.2-3.6c-1.3-1.4-2.3-3-3.2-4.5-1.8-3.2-2.7-6.7-3.2-10.2q-0.3-1.6-0.3-3.3-0.2-1.8-0.2-3.6c0-0.3-0.3-0.6-0.6-0.6-0.3 0-0.5 0.2-0.6 0.5-0.4 3.5-0.4 6.9 0.1 10.4 0.5 3.4 1.5 6.9 3.2 10.1 0.9 1.6 2 3.1 3.2 4.5q1.9 2.1 4.3 3.7c1.5 1 3.2 1.8 5 2.5 0.8 0.3 1.7 0.6 2.6 0.9l2.7 0.6c6.2 1.4 12.2 3.8 17.5 7.2 2.7 1.6 5.2 3.5 7.6 5.5q1.7 1.5 3.3 3.2c0.6 0.6 1.1 1.1 1.6 1.7q0.3 0.4 0.7 0.8 0.2 0.2 0.3 0.4c0.1 0.1 0.2 0.3 0.2 0.3 0.6 1.2 1.5 2.1 2.5 2.6v-4.5q-0.5-0.6-0.9-1.4c0 0-0.1-0.2-0.2-0.3z"/>
						</g>
						<g id="&lt;Group&gt;">
							<path id="&lt;Path&gt;" class="s13" d="m728.1 456.8c-0.1-0.3-0.3-0.5-0.6-0.5-0.4 0-0.6 0.3-0.6 0.6 0 3.3-0.4 6.7-1.3 9.8-0.8 3.2-2.1 6.2-3.9 8.7q-1.4 1.9-3.1 3.4-1.7 1.5-3.7 2.5-2.1 1-4.2 1.5c-0.8 0.2-1.5 0.3-2.3 0.5l-2 0.2q0.3-0.4 0.6-0.7 1.4-2.5 2.3-5.1c0.5-1.8 0.8-3.6 1-5.5 0.2-3.6-0.3-7.2-1.3-10.5-1.1-3.3-2.5-6.5-4.3-9.4-0.2-0.3-0.5-0.4-0.8-0.2-0.3 0.1-0.4 0.5-0.2 0.7v0.1c1.4 2.9 2.4 6.2 2.9 9.4 0.6 3.2 0.7 6.4 0.1 9.5q-0.4 2.3-1.4 4.4-0.9 2.1-2.3 3.8-1.4 1.8-3.2 3.2c-0.6 0.5-1.2 0.9-1.8 1.3l-1.1 0.7c-3.9 0.9-7.7 2.2-11.4 4q-5 2.2-9.5 5.3-1.2 0.8-2.3 1.7-0.2 0.4-0.4 0.8v14.2c1-0.5 1.9-1.4 2.4-2.6 0.1 0 0.2-0.1 0.3-0.3q0.1-0.2 0.3-0.4 0.3-0.4 0.7-0.8c0.5-0.6 1-1.1 1.5-1.7q1.6-1.6 3.4-3.2c2.3-2 4.9-3.9 7.6-5.5 5.3-3.4 11.3-5.7 17.5-7.2l2.6-0.6c0.9-0.3 1.8-0.6 2.7-0.9 1.8-0.7 3.4-1.5 5-2.5q2.4-1.6 4.3-3.7c1.2-1.4 2.3-2.9 3.2-4.5 1.7-3.2 2.7-6.7 3.2-10.1 0.5-3.5 0.5-6.9 0.1-10.4z"/>
							<path id="&lt;Path&gt;" class="s1" d="m674 507q0.1-0.2 0.3-0.4 0.3-0.4 0.7-0.9c0.5-0.5 1-1.1 1.5-1.6q1.6-1.7 3.4-3.2c2.3-2.1 4.9-3.9 7.6-5.6 5.3-3.3 11.3-5.7 17.5-7.1l2.6-0.7c0.9-0.2 1.8-0.5 2.7-0.8 1.8-0.7 3.4-1.6 5-2.6q2.4-1.6 4.3-3.6c1.2-1.4 2.3-2.9 3.2-4.5 1.7-3.2 2.7-6.7 3.2-10.1q0.1-0.6 0.1-1.2-0.2 1-0.5 2c-0.8 3.2-2.1 6.2-3.9 8.7q-1.4 1.9-3.1 3.4-1.7 1.5-3.7 2.5-2.1 1-4.2 1.5c-0.8 0.2-1.5 0.3-2.3 0.5l-2 0.2-2.2-0.2c1-1.6 2.5-5.2 3.1-7 0.5-1.7 0.8-3.6 1-5.4 0.2-3.6-0.3-7.2-1.3-10.5q-1.3-4.2-3.4-7.9 0 0.2 0.1 0.3v0.1c1.4 2.9 2.4 6.2 2.9 9.4 0.6 3.2 0.7 6.4 0.1 9.5q-0.4 2.3-1.4 4.4-0.9 2.1-2.3 3.8-1.4 1.8-3.2 3.2c-0.6 0.5-1.2 0.9-1.8 1.3l-1.1 0.7c-3.9 0.9-7.7 2.2-11.4 4q-5 2.2-9.5 5.3-1.2 0.8-2.3 1.7-0.2 0.4-0.4 0.8v11.2q0.2-0.4 0.4-0.9c0.1 0 0.2-0.2 0.3-0.3z"/>
						</g>
						<g id="&lt;Group&gt;">
							<g id="&lt;Group&gt;">
								<g id="&lt;Group&gt;">
									<g id="&lt;Group&gt;">
										<g id="&lt;Group&gt;">
											<path id="&lt;Path&gt;" class="s1" d="m674.3 385.9l2.6 172.7c0.1 0.8-0.4 1.7-1.6 2.3-2.4 1.4-6.4 1.4-8.8 0-1.2-0.7-1.7-1.5-1.6-2.4l2.8-172.6z"/>
										</g>
									</g>
									<path id="&lt;Path&gt;" class="s13" d="m676.9 558.6l-2.6-172.7h-3.3v176c1.6 0 3.2-0.3 4.3-1 1.2-0.6 1.7-1.5 1.6-2.3z"/>
								</g>
							</g>
						</g>
					</g>
					<g id="&lt;Group&gt;">
						<path id="&lt;Path&gt;" class="s17" d="m671.6 421.7c0-3.6-4.1-6.5-9.3-6.5-3.1 0-5.8 1.1-7.5 2.7-4-4.8-18.4-8.3-35.5-8.3-10.9 0-20.7 1.4-27.4 3.7-1.6-1-3.7-1.5-5.9-1.5-5.1 0-9.3 2.9-9.3 6.5 0 1 0.3 1.9 0.9 2.7-3.8 1.6-6.3 4.2-6.3 7.3 0 2.8 2.2 5.4 5.7 7-1 1-1.6 2.3-1.6 3.6 0 3.6 4.1 6.5 9.2 6.5 2.6 0 4.8-0.7 6.5-1.8 2.1 1.3 4.7 2.2 7.8 2.5q-0.2 1 0.1 2c0.9 3.5 5.6 5.3 10.6 4 4.1-1.1 7.1-4 7.4-7 2 0 3.8-0.3 5.5-0.8 2.2 2.7 5.5 4.5 9.3 4.5 5.5 0 10.2-3.8 11.6-8.8 2.2 2.4 5.3 3.9 8.8 3.9 6.6 0 12-5.4 12-12q0-1.7-0.4-3.2 0.1-0.3 0.1-0.7c4.4-0.5 7.7-3.1 7.7-6.3z"/>
						<path id="&lt;Path&gt;" class="s12" d="m659 427.7c-3.5 0-6.6-1.5-8.8-3.9-1.4 5.1-6.1 8.8-11.6 8.8-3.8 0-7.1-1.7-9.3-4.4-1.7 0.5-3.5 0.7-5.5 0.8-0.3 2.9-3.3 5.8-7.4 6.9-5 1.3-9.7-0.4-10.7-3.9q-0.2-1 0-2c-3.1-0.3-5.8-1.2-7.8-2.6-1.7 1.2-3.9 1.9-6.5 1.9-5.1 0-9.2-2.9-9.2-6.5 0-1.4 0.6-2.6 1.6-3.7-2.5-1.1-4.4-2.8-5.2-4.7-1.2 1.1-1.9 2.4-1.9 3.9 0 1 0.3 1.9 0.9 2.7-3.8 1.6-6.3 4.2-6.3 7.3 0 2.8 2.2 5.4 5.7 7-1 1-1.6 2.3-1.6 3.6 0 3.6 4.1 6.5 9.2 6.5 2.6 0 4.8-0.7 6.5-1.8 2.1 1.3 4.7 2.2 7.8 2.5q-0.2 1 0.1 2c0.9 3.5 5.6 5.3 10.6 4 4.1-1.1 7.1-4 7.4-7 2 0 3.8-0.3 5.5-0.8 2.2 2.7 5.5 4.5 9.3 4.5 5.5 0 10.2-3.8 11.6-8.8 2.2 2.4 5.3 3.9 8.8 3.9 6.6 0 12-5.4 12-12q0-1.7-0.4-3.2 0.1-0.3 0.1-0.7c4.4-0.5 7.7-3.1 7.7-6.3 0-1.1-0.4-2.1-1-3-1.3 5.2-6 9-11.6 9z"/>
						<g id="&lt;Group&gt;">
							<path id="&lt;Path&gt;" class="s17" d="m769.2 449.2c0-4.8-3.8-8.7-8.6-8.7-2.1 0-4 0.7-5.5 2-3-3.1-10.7-5.4-20.1-5.9-4.1-0.6-8.5-0.9-13.1-0.9-21.5 0-38.9 7.1-38.9 15.8q0 1.3 0.5 2.6-0.5 1.4-0.5 3c0 4.8 3.9 8.7 8.7 8.7q0.2 0 0.5 0c1.5 5 6.1 8.7 11.6 8.7 3.1 0 5.9-1.2 8.1-3.1 1.5 2.3 4.2 3.8 7.2 3.8 4.1 0 7.4-2.8 8.4-6.5 1.9 1.3 4.1 2 6.5 2 3.9 0 7.3-1.9 9.4-4.8 1.9 2.5 4.9 4.2 8.3 4.2 5.6 0 10.2-4.6 10.2-10.3q0-1.1-0.2-2c4.3-0.6 7.5-4.2 7.5-8.6z"/>
							<path id="&lt;Path&gt;" class="s12" d="m766.1 442.5c-1.2 1-2.7 1.7-4.4 1.9q0.2 1 0.2 2.1c0 5.6-4.6 10.2-10.2 10.2-3.4 0-6.4-1.6-8.3-4.1-2.1 2.9-5.5 4.8-9.4 4.8-2.4 0-4.6-0.8-6.5-2-1 3.7-4.3 6.5-8.4 6.5-3 0-5.7-1.5-7.2-3.9-2.2 2-5 3.1-8.1 3.1-5.5 0-10.1-3.6-11.6-8.7q-0.3 0.1-0.5 0.1c-3.3 0-6.2-1.9-7.7-4.6q-1 1.7-1 3.6 0 1.3 0.5 2.6-0.5 1.4-0.5 3c0 4.8 3.9 8.7 8.7 8.7q0.2 0 0.5 0c1.5 5 6.1 8.7 11.6 8.7 3.1 0 5.9-1.2 8.1-3.1 1.5 2.3 4.2 3.8 7.2 3.8 4.1 0 7.4-2.8 8.4-6.5 1.9 1.3 4.1 2 6.5 2 3.9 0 7.3-1.9 9.4-4.8 1.9 2.5 4.9 4.2 8.3 4.2 5.6 0 10.2-4.6 10.2-10.3q0-1.1-0.2-2c4.3-0.6 7.5-4.2 7.5-8.6 0-2.7-1.2-5.1-3.1-6.7z"/>
						</g>
						<g id="&lt;Group&gt;">
							<path id="&lt;Path&gt;" class="s12" d="m737.6 399.9c0-3.1-1.5-5.8-3.7-7.6 0.8-1.4 1.3-3 1.3-4.8 0-5.3-4.3-9.7-9.7-9.7-2.4 0-4.6 1-6.3 2.4-1.2-8.6-8.7-15.3-17.7-15.3-1.6 0-3.1 0.2-4.6 0.6-4.1-5-10.3-8.3-17.3-8.3-7.6 0-14.3 3.8-18.3 9.7-2.5-1.3-5.2-2-8.1-2-7 0-13 4-16 9.8-2-0.9-4.3-1.3-6.7-1.3q-0.2 0-0.3 0c-1.8-1.7-4.1-2.7-6.7-2.7-5.4 0-9.7 4.3-9.7 9.6q0 1.7 0.6 3.2-0.2 0.3-0.3 0.6c-4.1 1.1-7.1 4.8-7.1 9.3 0 5.3 4.3 9.6 9.6 9.6q0.1 0 0.2 0c3.3 3.9 8.3 6.4 13.7 6.4q0.4-0.1 0.8-0.1c0.8 4.5 4.8 7.9 9.5 7.9 3 0 5.6-1.3 7.4-3.4 1.7 0.5 3.4 0.7 5.3 0.7 2.6 0 5.1-0.5 7.4-1.4 3.4 5.9 9.8 10 17.1 10 4 0 7.8-1.3 10.9-3.4 1.4 0.7 2.9 1.1 4.5 1.1 3.7 0 6.9-2 8.5-5.1 1.9 0.6 3.9 1 5.9 1 2 0 3.9-0.3 5.7-0.9 1.5 1.1 3.4 1.7 5.4 1.7 4.8 0 8.7-3.4 9.5-7.9 5.1-0.3 9.2-4.5 9.2-9.7z"/>
							<path id="&lt;Path&gt;" class="s17" d="m726.9 371.9q0.2-1 0.2-2.1c0-5.3-4.3-9.6-9.6-9.6-2 0-3.9 0.6-5.4 1.6-1.4-0.4-2.8-0.7-4.3-0.7-2.9 0-5.4 0.9-7.6 2.4-1.4-6.1-6.8-10.6-13.3-10.6-3.4 0-6.5 1.2-8.8 3.3-2.3-1.7-5.1-2.7-8.1-2.7-3 0-5.8 1-8.1 2.7-1.6-1-3.4-1.7-5.4-1.7-3.5 0-6.6 1.9-8.3 4.7-1.8-2.1-4.4-3.4-7.4-3.4-3.2 0-6.1 1.6-7.8 4-1.1-0.4-2.3-0.7-3.5-0.7-5.3 0-9.6 4.4-9.6 9.7 0 5.3 4.3 9.6 9.6 9.6 1.7 0 3.3-0.4 4.7-1.2 1.5 1.8 3.7 3.1 6.2 3.4 2.3 3.6 6.4 6.1 11.1 6.1 2.5 0 4.7-0.8 6.7-1.9 1.9 6.5 7.9 11.2 15 11.2 6.9 0 12.9-4.6 14.8-10.9 1.4 0.9 3.1 1.4 4.9 1.4 2.4 0 4.5-0.9 6.2-2.5 2.3 2.1 5.3 3.4 8.7 3.4 2.3 0 4.5-0.6 6.4-1.7 1.7 2.5 4.6 4.2 7.9 4.2 5.3 0 9.6-4.4 9.6-9.7 0-3.5-1.9-6.6-4.8-8.3z"/>
						</g>
					</g>
				</g>
			</g>
			<g id="&lt;Group&gt;">
				<g id="&lt;Group&gt;">
					<g id="&lt;Group&gt;">
						<g id="&lt;Group&gt;">
							<g id="&lt;Group&gt;">
								<g id="&lt;Group&gt;">
									<path id="&lt;Path&gt;" class="s0" d="m795 248.4l-120.8 70.3-121.8-70.3 121-70.4z"/>
								</g>
								<g id="&lt;Group&gt;">
									<path id="&lt;Path&gt;" class="s1" d="m795 248.4v15.8l-120.8 70.3v-15.8z"/>
								</g>
								<g id="&lt;Group&gt;">
									<path id="&lt;Path&gt;" class="s2" d="m674.2 318.7v15.8l-121.8-70.3v-15.8z"/>
								</g>
							</g>
						</g>
						<g id="&lt;Group&gt;">
							<g id="&lt;Group&gt;">
								<g id="&lt;Group&gt;">
									<path id="&lt;Path&gt;" class="s3" d="m795 237.4l-120.8 70.3-121.8-70.3 121-70.4z"/>
								</g>
								<g id="&lt;Group&gt;">
									<path id="&lt;Path&gt;" class="s4" d="m795 237.4v15.8l-120.8 70.3v-15.8z"/>
								</g>
								<g id="&lt;Group&gt;">
									<path id="&lt;Path&gt;" class="s5" d="m674.2 307.7v15.8l-121.8-70.3v-15.8z"/>
								</g>
							</g>
						</g>
						<g id="&lt;Group&gt;">
							<g id="&lt;Group&gt;">
								<path id="&lt;Path&gt;" class="s7" d="m670.2 273.4c2.2 1.2 2.2 3.3 0 4.5-2.1 1.3-5.6 1.3-7.8 0-2.2-1.2-2.2-3.3 0-4.5 2.1-1.3 5.6-1.3 7.8 0z"/>
							</g>
							<g id="&lt;Group&gt;">
								<path id="&lt;Path&gt;" class="s7" d="m763.4 231c2.2 1.3 2.2 3.3 0 4.6-2.2 1.2-5.7 1.2-7.8 0-2.2-1.3-2.2-3.3-0.1-4.6 2.2-1.2 5.7-1.2 7.9 0z"/>
							</g>
							<g id="&lt;Group&gt;">
								<path id="&lt;Path&gt;" class="s7" d="m734.4 237.7c2.2 1.3 2.2 3.3 0 4.6-2.2 1.2-5.7 1.2-7.9 0-2.1-1.3-2.1-3.3 0-4.6 2.2-1.3 5.7-1.3 7.9 0z"/>
							</g>
							<g id="&lt;Group&gt;">
								<path id="&lt;Path&gt;" class="s7" d="m596 234.4c2.2 1.2 2.2 3.3 0 4.5-2.1 1.3-5.7 1.3-7.8 0-2.2-1.2-2.2-3.3-0.1-4.5 2.2-1.3 5.7-1.3 7.9 0z"/>
							</g>
							<g id="&lt;Group&gt;">
								<path id="&lt;Path&gt;" class="s7" d="m618.3 243.3c2.2 1.2 2.2 3.3 0 4.5-2.1 1.3-5.7 1.3-7.8 0-2.2-1.2-2.2-3.3-0.1-4.5 2.2-1.3 5.7-1.3 7.9 0z"/>
							</g>
							<g id="&lt;Group&gt;">
								<path id="&lt;Path&gt;" class="s7" d="m650.7 193.1c2.2 1.2 2.2 3.3 0 4.5-2.1 1.3-5.7 1.3-7.8 0-2.2-1.2-2.2-3.3-0.1-4.5 2.2-1.3 5.7-1.3 7.9 0z"/>
							</g>
							<g id="&lt;Group&gt;">
								<path id="&lt;Path&gt;" class="s7" d="m708.7 198.7c2.2 1.2 2.2 3.2 0 4.5-2.1 1.3-5.6 1.3-7.8 0-2.2-1.3-2.2-3.3 0-4.5 2.1-1.3 5.6-1.3 7.8 0z"/>
							</g>
							<g id="&lt;Group&gt;">
								<path id="&lt;Path&gt;" class="s7" d="m697.5 278.9c2.2 1.3 2.2 3.3 0 4.5-2.1 1.3-5.7 1.3-7.8 0-2.2-1.2-2.2-3.2-0.1-4.5 2.2-1.3 5.7-1.3 7.9 0z"/>
							</g>
						</g>
					</g>
					<g id="&lt;Group&gt;">
						<g id="&lt;Group&gt;">
							<path id="&lt;Path&gt;" class="s6" d="m704.3 222.8c16.8 9.7 16.9 25.5 0.2 35.2-16.8 9.7-44 9.7-60.8 0-16.8-9.7-16.9-25.5-0.2-35.2 16.7-9.7 43.9-9.7 60.8 0z"/>
						</g>
					</g>
					<g id="&lt;Group&gt;">
						<g id="&lt;Group&gt;">
							<path id="&lt;Path&gt;" class="s13" d="m671.6 63.1c0.2 0 0.6-0.1 0.9-0.1q0.5-0.1 1-0.2 1-0.2 2.1-0.4c1.3-0.3 2.7-0.7 4.1-1.1q2-0.7 4-1.4c1.4-0.5 2.7-1 4-1.5 1.3-0.7 2.6-1.2 3.9-1.9l3.8-2 3.7-2.3q1-0.6 1.8-1.2l1.8-1.3 1.7-1.3 1.7-1.4c1-1 2.2-1.9 3.2-2.9l3.1-3.2 0.7-0.8 0.7-0.8 1.4-1.7 1.4-1.7 0.7-0.9 0.6-0.9 2.4-3.7c0.9-1.2 1.5-2.6 2.2-3.9l2.1-3.9 1.1 0.5-1.7 4.1c-0.6 1.4-1.1 2.9-1.9 4.2l-2.1 4-0.5 1-0.7 1-1.2 1.9-1.3 1.9-0.6 1-0.7 0.9-2.9 3.6c-0.9 1.2-2.1 2.2-3.1 3.4l-1.6 1.7-1.7 1.5-1.7 1.6q-0.9 0.8-1.8 1.5l-3.7 2.8-3.9 2.6c-1.3 0.8-2.7 1.6-4 2.4-1.4 0.7-2.8 1.4-4.2 2.1q-2.1 1-4.3 1.9c-1.4 0.6-2.9 1.2-4.4 1.7q-1.2 0.4-2.3 0.7-0.6 0.2-1.2 0.3c-0.4 0.1-0.8 0.2-1.3 0.3z"/>
							<path id="&lt;Path&gt;" class="s13" d="m764.7 109.8q-2.8 1.6-5.8 2.7-3 1-6.2 1.6c-4.1 0.8-8.4 1-12.7 0.7q-3.1-0.3-6.3-0.8-0.7-0.1-1.5-0.3c4.3-4.4 8.2-9.1 11.7-14.1 1.3-2 2.7-4 3.9-6 1.2-2.1 2.5-4.1 3.6-6.2l6.9-12.4c0.1-0.2 0-0.6-0.2-0.7-0.3-0.2-0.7-0.2-0.8 0.1l-8.1 11.6c-1.3 2-2.7 3.9-4.1 5.7-1.3 1.9-2.9 3.7-4.3 5.5-6.1 7-12.9 13.3-20.4 18.6-1.7 1.3-3.5 2.4-5.3 3.5q0 0 0 0-0.7-1.1-1.4-2.2-1.3-2.2-2.4-4.5c-1.4-3.1-2.5-6.4-3.3-9.8-0.8-3.4-1-6.9-0.8-10.4l0.2-2.6 0.5-2.7c0.1-0.4 0.1-0.8 0.3-1.3l0.4-1.2 0.8-2.6v-0.1c0.1-0.3-0.1-0.6-0.3-0.7-0.3-0.1-0.7 0-0.8 0.3l-1.3 2.4-0.7 1.3c-0.1 0.4-0.3 0.9-0.5 1.3l-1 2.7-0.7 2.7c-0.9 3.7-1.3 7.6-1.1 11.5 0.1 3.9 0.7 7.8 1.7 11.5q0.7 2.9 1.7 5.7 0.6 1.3 1.2 2.7 0 0.2 0.1 0.3c-1.6 0.9-3.3 1.7-5 2.5-2.1 0.9-4.1 1.9-6.2 2.7l-3.2 1.2c-1 0.4-2.1 0.7-3.2 1.1-1.1 0.3-2.1 0.7-3.2 1l-3.3 0.9c-2.1 0.6-4.4 1-6.5 1.5-1.1 0.2-2.3 0.3-3.4 0.5l-1.6 0.3-0.8 0.1-0.4 0.1h-0.3l-0.1 0.1c0.4 2.6-1.2-6 1 5.9 2.2 11.9 0.7 3.3 1.2 6v-0.1h0.2 0.2l0.4-0.2 0.9-0.2 1.8-0.5c1.2-0.3 2.4-0.5 3.6-0.9 2.4-0.8 4.7-1.5 7-2.4l3.5-1.3c1.1-0.4 2.3-1 3.4-1.4 1.1-0.5 2.3-1 3.4-1.5l3.3-1.7c2.2-1 4.3-2.3 6.4-3.5 2.1-1.2 4.1-2.6 6.2-3.9 2-1.4 4-2.8 5.9-4.3 1.9-1.5 3.9-3 5.6-4.6q2.1-1.8 4.1-3.7c1.6 0.2 3.1 0.4 4.6 0.6q3.4 0.3 6.8 0.2c4.4-0.1 8.9-0.6 13.2-1.8q3.3-0.9 6.3-2.3 3.1-1.4 5.8-3.3c3.7-2.5 6.8-5.8 9.2-9.4-2.7 3.4-6 6.4-9.8 8.5z"/>
							<path id="&lt;Path&gt;" class="s13" d="m593.1 68.2q2.4 1.4 5 2.3 2.6 0.9 5.2 1.4c3.6 0.7 7.2 0.8 10.8 0.5q2.7-0.1 5.4-0.6 0.7-0.1 1.3-0.3c-3.6-3.7-6.9-7.7-9.9-12-1.1-1.7-2.3-3.3-3.4-5.1-1-1.8-2.1-3.5-3-5.2l-5.8-10.6c-0.2-0.2-0.1-0.5 0.1-0.6 0.2-0.2 0.5-0.1 0.7 0.1l6.8 9.9c1.2 1.7 2.4 3.3 3.5 4.9 1.2 1.6 2.5 3 3.7 4.6 5.1 6 11 11.3 17.3 15.8 1.5 1.1 3 2 4.5 3q0 0 0.1 0 0.6-0.9 1.1-1.9 1.1-1.8 2-3.8c1.3-2.7 2.2-5.5 2.9-8.3 0.6-2.9 0.8-5.9 0.7-8.9l-0.2-2.2-0.4-2.3c-0.1-0.3-0.1-0.7-0.2-1.1l-0.4-1.1-0.7-2.2c0-0.2 0.1-0.5 0.3-0.6 0.2-0.1 0.5 0 0.6 0.2l1.1 2.1 0.6 1.1c0.2 0.4 0.3 0.7 0.4 1.1l0.9 2.3 0.6 2.3c0.8 3.2 1.1 6.5 1 9.8-0.1 3.3-0.6 6.6-1.5 9.8q-0.6 2.4-1.5 4.8-0.4 1.1-0.9 2.3-0.1 0.1-0.2 0.3c1.5 0.7 2.8 1.4 4.3 2.1 1.7 0.7 3.5 1.6 5.3 2.3l2.7 1c0.9 0.3 1.8 0.6 2.7 0.9 0.9 0.3 1.8 0.6 2.8 0.9l2.7 0.7c1.9 0.6 3.8 0.9 5.6 1.3 0.9 0.2 1.9 0.3 2.8 0.5l1.4 0.2 0.7 0.1 0.4 0.1h0.2 0.1c-0.4 2.3 1-5-0.9 5.1-1.9 10.1-0.5 2.8-1 5h-0.1-0.2l-0.4-0.1-0.8-0.2-1.5-0.4c-1-0.3-2-0.5-3-0.9-2-0.6-4.1-1.2-6-2l-3-1.1c-0.9-0.3-1.9-0.8-2.8-1.2-1-0.4-2-0.8-2.9-1.3l-2.8-1.4c-1.9-0.9-3.7-2-5.5-3-1.8-1-3.5-2.2-5.3-3.3-1.6-1.2-3.4-2.4-5-3.6-1.6-1.3-3.3-2.6-4.8-4q-1.7-1.5-3.4-3.1c-1.4 0.2-2.6 0.3-4 0.5q-2.8 0.2-5.7 0.2c-3.8-0.1-7.6-0.5-11.3-1.6q-2.7-0.7-5.3-1.9-2.6-1.2-5-2.8c-3.1-2.1-5.7-4.9-7.8-8 2.4 2.9 5.2 5.4 8.3 7.2z"/>
							<path id="&lt;Path&gt;" class="s13" d="m592.9 130.2q2.4 1.4 4.9 2.3 2.6 0.9 5.3 1.4c3.5 0.7 7.2 0.8 10.8 0.5q2.7-0.1 5.4-0.6 0.6-0.1 1.3-0.3c-3.7-3.7-7-7.7-10-12-1.1-1.7-2.3-3.3-3.3-5.1-1-1.8-2.1-3.5-3.1-5.2l-5.8-10.6c-0.1-0.2-0.1-0.5 0.1-0.6 0.3-0.2 0.6-0.1 0.7 0.1l6.9 9.9c1.1 1.7 2.3 3.3 3.5 4.9 1.1 1.6 2.4 3 3.7 4.6 5.1 6 10.9 11.3 17.3 15.8 1.4 1.1 3 2 4.5 3q0 0 0 0 0.6-0.9 1.2-1.9 1.1-1.8 2-3.8c1.2-2.7 2.2-5.5 2.8-8.3 0.7-2.9 0.9-5.9 0.7-8.9l-0.2-2.2-0.4-2.2c0-0.4-0.1-0.8-0.2-1.2l-0.3-1.1-0.7-2.2c-0.1-0.2 0-0.5 0.2-0.6 0.3-0.1 0.6 0 0.7 0.2l1.1 2.1 0.5 1.1c0.2 0.4 0.3 0.7 0.5 1.1l0.8 2.3 0.7 2.3c0.7 3.2 1.1 6.5 0.9 9.8-0.1 3.3-0.6 6.6-1.4 9.8q-0.7 2.4-1.5 4.8-0.5 1.1-1 2.3 0 0.1-0.1 0.3c1.4 0.7 2.8 1.4 4.2 2.1 1.8 0.8 3.5 1.6 5.3 2.3l2.7 1c0.9 0.3 1.8 0.6 2.8 0.9 0.9 0.3 1.8 0.6 2.7 0.9l2.8 0.7c1.8 0.6 3.7 0.9 5.6 1.3 0.9 0.2 1.8 0.3 2.8 0.5l1.4 0.2 0.7 0.1 0.3 0.1h0.2 0.1 0.1c-0.4 2.3 0.9-5-1 5.1-1.8 10.1-0.5 2.8-0.9 5.1v-0.1h-0.1-0.1-0.2l-0.4-0.1-0.7-0.2-1.5-0.4c-1.1-0.3-2.1-0.5-3.1-0.9-2-0.6-4-1.2-6-2l-2.9-1.1c-1-0.3-1.9-0.8-2.9-1.2-0.9-0.4-1.9-0.8-2.9-1.3l-2.8-1.4c-1.8-0.9-3.6-2-5.4-3-1.8-1-3.6-2.2-5.3-3.3-1.7-1.2-3.4-2.4-5-3.6-1.6-1.3-3.3-2.6-4.8-4q-1.8-1.5-3.5-3.1c-1.3 0.2-2.6 0.3-3.9 0.5q-2.9 0.2-5.7 0.2c-3.9-0.1-7.7-0.5-11.3-1.6q-2.8-0.7-5.4-1.9-2.6-1.2-4.9-2.8c-3.1-2.1-5.7-4.9-7.8-8 2.3 2.9 5.1 5.4 8.3 7.2z"/>
							<g id="&lt;Group&gt;">
								<g id="&lt;Group&gt;">
									<g id="&lt;Group&gt;">
										<g id="&lt;Group&gt;">
											<g id="&lt;Group&gt;">
												<g id="&lt;Group&gt;">
													<path id="&lt;Path&gt;" class="s1" d="m672.7 9.6l5.2 232.9c0.1 0.9-0.4 1.7-1.6 2.4-2.4 1.4-6.4 1.4-8.8 0-1.2-0.7-1.7-1.6-1.6-2.4l5.4-232.9z"/>
												</g>
											</g>
											<path id="&lt;Path&gt;" class="s13" d="m677.9 242.5l-5.2-232.9h-0.7v236.3c1.6 0 3.2-0.3 4.3-1 1.2-0.7 1.7-1.5 1.6-2.4z"/>
										</g>
									</g>
								</g>
							</g>
						</g>
						<g id="&lt;Group&gt;">
							<path id="&lt;Path&gt;" class="s9" d="m617.5 91.5c0 0 5.1-7.4 12.5-8.4 7.5-1.1 14.4 4.7 14.4 4.7 0 0-5.1 7.4-12.6 8.4-7.4 1.1-14.3-4.7-14.3-4.7z"/>
							<path id="&lt;Path&gt;" class="s14" d="m630 83.1c-7.4 1-12.5 8.4-12.5 8.4l26.9-3.7c0 0-6.9-5.8-14.4-4.7z"/>
						</g>
						<g id="&lt;Group&gt;">
							<path id="&lt;Path&gt;" class="s9" d="m645.5 56.4c0 0-0.2-9 5.2-14.2 5.3-5.3 14.3-4.7 14.3-4.7 0 0 0.3 9-5.1 14.2-5.4 5.2-14.4 4.7-14.4 4.7z"/>
							<path id="&lt;Path&gt;" class="s14" d="m650.7 42.2c-5.4 5.2-5.2 14.2-5.2 14.2l19.5-18.9c0 0-9-0.6-14.3 4.7z"/>
						</g>
						<g id="&lt;Group&gt;">
							<path id="&lt;Path&gt;" class="s9" d="m682.1 64.6c0 0 9-1.9 15.3 2.6 6.2 4.5 7.3 13.7 7.3 13.7 0 0-9.1 1.9-15.3-2.7-6.3-4.5-7.3-13.6-7.3-13.6z"/>
							<path id="&lt;Path&gt;" class="s14" d="m697.4 67.2c-6.3-4.5-15.3-2.6-15.3-2.6l22.6 16.3c0 0-1.1-9.2-7.3-13.7z"/>
						</g>
						<g id="&lt;Group&gt;">
							<path id="&lt;Path&gt;" class="s9" d="m726.7 71.2c0 0 9.1-1.9 15.3 2.6 6.2 4.5 7.3 13.7 7.3 13.7 0 0-9.1 1.9-15.3-2.6-6.2-4.5-7.3-13.7-7.3-13.7z"/>
							<path id="&lt;Path&gt;" class="s14" d="m742 73.8c-6.2-4.5-15.3-2.6-15.3-2.6l22.6 16.3c0 0-1.1-9.2-7.3-13.7z"/>
						</g>
						<g id="&lt;Group&gt;">
							<path id="&lt;Path&gt;" class="s9" d="m715.3 128.5c0 0 9-1.8 15.3 2.7 6.2 4.5 7.3 13.7 7.3 13.7 0 0-9.1 1.8-15.3-2.7-6.3-4.5-7.3-13.7-7.3-13.7z"/>
							<path id="&lt;Path&gt;" class="s14" d="m730.6 131.2c-6.3-4.5-15.3-2.7-15.3-2.7l22.6 16.4c0 0-1.1-9.2-7.3-13.7z"/>
						</g>
						<g id="&lt;Group&gt;">
							<path id="&lt;Path&gt;" class="s9" d="m701.6 133c0 0 4.3 7.9 1.8 15-2.5 7.1-10.8 10.6-10.8 10.6 0 0-4.3-8-1.8-15.1 2.5-7 10.8-10.5 10.8-10.5z"/>
							<path id="&lt;Path&gt;" class="s14" d="m703.4 148c2.5-7.1-1.8-15-1.8-15l-9 25.6c0 0 8.3-3.5 10.8-10.6z"/>
						</g>
						<g id="&lt;Group&gt;">
							<path id="&lt;Path&gt;" class="s9" d="m641.3 147.1c0 0-8.6-3.4-15.5 0-6.9 3.4-9.5 12.3-9.5 12.3 0 0 8.6 3.4 15.5 0 6.9-3.4 9.5-12.3 9.5-12.3z"/>
							<path id="&lt;Path&gt;" class="s14" d="m625.8 147.1c6.9-3.4 15.5 0 15.5 0l-25 12.3c0 0 2.6-8.9 9.5-12.3z"/>
						</g>
						<g id="&lt;Group&gt;">
							<path id="&lt;Path&gt;" class="s9" d="m625.3 70.8c0 0 7.4-5.1 8.5-12.6 1-7.4-4.7-14.3-4.7-14.3 0 0-7.4 5-8.5 12.5-1 7.4 4.7 14.4 4.7 14.4z"/>
							<path id="&lt;Path&gt;" class="s14" d="m633.8 58.2c-1.1 7.5-8.5 12.6-8.5 12.6l3.8-26.9c0 0 5.7 6.9 4.7 14.3z"/>
						</g>
						<g id="&lt;Group&gt;">
							<path id="&lt;Path&gt;" class="s9" d="m671.2 30.1c0 0-2.5-8.9-9.4-12.4-6.9-3.4-15.5-0.1-15.5-0.1 0 0 2.5 8.8 9.4 12.3 6.9 3.5 15.5 0.2 15.5 0.2z"/>
							<path id="&lt;Path&gt;" class="s14" d="m661.8 17.7c6.9 3.5 9.4 12.4 9.4 12.4l-24.9-12.5c0 0 8.6-3.3 15.5 0.1z"/>
						</g>
						<g id="&lt;Group&gt;">
							<path id="&lt;Path&gt;" class="s9" d="m708.6 125.1c0 0-2.5-8.9-9.4-12.4-6.9-3.4-15.5-0.1-15.5-0.1 0 0 2.5 8.9 9.4 12.3 6.8 3.5 15.5 0.2 15.5 0.2z"/>
							<path id="&lt;Path&gt;" class="s14" d="m699.2 112.7c6.9 3.5 9.4 12.4 9.4 12.4l-24.9-12.5c0 0 8.6-3.3 15.5 0.1z"/>
						</g>
						<g id="&lt;Group&gt;">
							<path id="&lt;Path&gt;" class="s9" d="m671 57.7c0 0 2.5-8.9 9.4-12.3 6.8-3.5 15.5-0.2 15.5-0.2 0 0-2.5 8.9-9.4 12.3-6.9 3.5-15.5 0.2-15.5 0.2z"/>
							<path id="&lt;Path&gt;" class="s14" d="m680.4 45.4c-6.9 3.4-9.4 12.3-9.4 12.3l24.9-12.5c0 0-8.7-3.3-15.5 0.2z"/>
						</g>
						<g id="&lt;Group&gt;">
							<path id="&lt;Path&gt;" class="s9" d="m653.5 86c0 0 7.5-5 8.5-12.5 1.1-7.4-4.7-14.4-4.7-14.4 0 0-7.4 5.1-8.5 12.6-1 7.4 4.7 14.3 4.7 14.3z"/>
							<path id="&lt;Path&gt;" class="s14" d="m662 73.5c-1 7.5-8.5 12.5-8.5 12.5l3.8-26.9c0 0 5.8 7 4.7 14.4z"/>
						</g>
						<g id="&lt;Group&gt;">
							<path id="&lt;Path&gt;" class="s9" d="m610.3 54.4c0 0-6.1 6.6-13.6 6.6-7.5 0-13.6-6.6-13.6-6.6 0 0 6.1-6.7 13.6-6.7 7.5 0 13.6 6.7 13.6 6.7z"/>
							<path id="&lt;Path&gt;" class="s14" d="m596.7 61c7.5 0 13.6-6.6 13.6-6.6h-27.2c0 0 6.1 6.6 13.6 6.6z"/>
						</g>
						<g id="&lt;Group&gt;">
							<path id="&lt;Path&gt;" class="s9" d="m731.9 113.9c0 0 2.9-8.5 9.8-11.6 6.8-3 15.1 0.6 15.1 0.6 0 0-2.9 8.6-9.7 11.6-6.9 3-15.2-0.6-15.2-0.6z"/>
							<path id="&lt;Path&gt;" class="s14" d="m741.7 102.3c-6.9 3.1-9.8 11.6-9.8 11.6l24.9-11c0 0-8.3-3.6-15.1-0.6z"/>
						</g>
						<g id="&lt;Group&gt;">
							<path id="&lt;Path&gt;" class="s9" d="m767 109.4c0 0 0.3-9 6-13.9 5.7-4.9 14.6-3.7 14.6-3.7 0 0-0.3 9-6 13.8-5.7 4.9-14.6 3.8-14.6 3.8z"/>
							<path id="&lt;Path&gt;" class="s14" d="m773 95.5c-5.7 4.9-6 13.9-6 13.9l20.6-17.6c0 0-8.9-1.2-14.6 3.7z"/>
						</g>
						<g id="&lt;Group&gt;">
							<path id="&lt;Path&gt;" class="s9" d="m754.4 117c0 0 7.8-4.6 14.9-2.3 7.2 2.2 11 10.4 11 10.4 0 0-7.8 4.5-14.9 2.3-7.2-2.3-11-10.4-11-10.4z"/>
							<path id="&lt;Path&gt;" class="s14" d="m769.3 114.7c-7.1-2.3-14.9 2.3-14.9 2.3l25.9 8.1c0 0-3.8-8.2-11-10.4z"/>
						</g>
						<g id="&lt;Group&gt;">
							<path id="&lt;Path&gt;" class="s9" d="m707.8 109.9c0 0-1.4-9 3.3-14.8 4.7-5.9 13.7-6.5 13.7-6.5 0 0 1.4 8.9-3.3 14.8-4.7 5.9-13.7 6.5-13.7 6.5z"/>
							<path id="&lt;Path&gt;" class="s14" d="m711.1 95.1c-4.7 5.8-3.3 14.8-3.3 14.8l17-21.3c0 0-9 0.6-13.7 6.5z"/>
						</g>
						<g id="&lt;Group&gt;">
							<path id="&lt;Path&gt;" class="s9" d="m609.9 74.4c0 0-8.3-3.9-15.5-1-7.1 2.8-10.3 11.5-10.3 11.5 0 0 8.3 4 15.5 1.1 7.1-2.9 10.3-11.6 10.3-11.6z"/>
							<path id="&lt;Path&gt;" class="s14" d="m594.4 73.4c7.2-2.9 15.5 1 15.5 1l-25.8 10.5c0 0 3.2-8.7 10.3-11.5z"/>
						</g>
						<g id="&lt;Group&gt;">
							<path id="&lt;Path&gt;" class="s9" d="m606.4 112.8c0 0-6.2-6.8-13.9-6.8-7.7-0.1-13.9 6.8-13.9 6.8 0 0 6.2 6.8 13.9 6.8 7.7 0 13.9-6.8 13.9-6.8z"/>
							<path id="&lt;Path&gt;" class="s14" d="m592.5 106c7.7 0 13.9 6.8 13.9 6.8h-27.8c0 0 6.2-6.9 13.9-6.8z"/>
						</g>
						<g id="&lt;Group&gt;">
							<path id="&lt;Path&gt;" class="s9" d="m624.3 130.9c0 0 6.9-6.1 7-13.8 0.1-7.7-6.6-14-6.6-14 0 0-6.9 6.1-7 13.8-0.1 7.7 6.6 14 6.6 14z"/>
							<path id="&lt;Path&gt;" class="s14" d="m631.3 117.1c-0.1 7.7-7 13.8-7 13.8l0.4-27.8c0 0 6.7 6.3 6.6 14z"/>
						</g>
						<g id="&lt;Group&gt;">
							<path id="&lt;Path&gt;" class="s9" d="m613.2 136.9c0 0-8.8-2.9-15.4 0.9-6.7 3.8-8.8 12.8-8.8 12.8 0 0 8.8 2.9 15.5-0.9 6.7-3.8 8.7-12.8 8.7-12.8z"/>
							<path id="&lt;Path&gt;" class="s14" d="m597.8 137.8c6.6-3.8 15.4-0.9 15.4-0.9l-24.2 13.7c0 0 2.1-9 8.8-12.8z"/>
						</g>
						<g id="&lt;Group&gt;">
							<path id="&lt;Path&gt;" class="s9" d="m657.1 150.9c0 0 5.3-7.6 3.6-15.1-1.6-7.5-9.6-12.2-9.6-12.2 0 0-5.3 7.6-3.7 15.1 1.7 7.5 9.7 12.2 9.7 12.2z"/>
							<path id="&lt;Path&gt;" class="s14" d="m660.7 135.8c1.7 7.5-3.6 15.1-3.6 15.1l-6-27.3c0 0 8 4.7 9.6 12.2z"/>
						</g>
						<g id="&lt;Group&gt;">
							<path id="&lt;Path&gt;" class="s9" d="m719 33.9c0 0-2.9-8.8 0.9-15.5 3.7-6.7 12.8-8.8 12.8-8.8 0 0 2.8 8.8-0.9 15.5-3.8 6.7-12.8 8.8-12.8 8.8z"/>
							<path id="&lt;Path&gt;" class="s14" d="m719.9 18.4c-3.8 6.7-0.9 15.5-0.9 15.5l13.7-24.3c0 0-9.1 2.1-12.8 8.8z"/>
						</g>
						<g id="&lt;Group&gt;">
							<path id="&lt;Path&gt;" class="s9" d="m706 50.5c0 0-6.4-6.7-5.9-14.4 0.5-7.7 7.7-13.4 7.7-13.4 0 0 6.4 6.6 5.9 14.3-0.5 7.7-7.7 13.5-7.7 13.5z"/>
							<path id="&lt;Path&gt;" class="s14" d="m700.1 36.1c-0.5 7.7 5.9 14.4 5.9 14.4l1.8-27.8c0 0-7.2 5.7-7.7 13.4z"/>
						</g>
						<g id="&lt;Group&gt;">
							<path id="&lt;Path&gt;" class="s9" d="m754.7 79.7c0 0-6.4-6.6-5.9-14.3 0.5-7.7 7.7-13.5 7.7-13.5 0 0 6.4 6.7 5.9 14.4-0.5 7.7-7.7 13.4-7.7 13.4z"/>
							<path id="&lt;Path&gt;" class="s14" d="m748.8 65.4c-0.5 7.7 5.9 14.3 5.9 14.3l1.8-27.8c0 0-7.2 5.8-7.7 13.5z"/>
						</g>
					</g>
				</g>
			</g>
		</g>
	</g>
</svg>