<svg version="1.2" xmlns="http://www.w3.org/2000/svg" viewBox="0 0 1000 1000" width="1000" height="1000">
	<title>6176198-ai</title>
	<defs>
		<clipPath clipPathUnits="userSpaceOnUse" id="cp1">
			<path d="m305.16 818.17h-37.29c-3.36 0-6.08-2.72-6.08-6.08v-17.15c0-3.37 2.72-6.09 6.08-6.09h37.29c3.36 0 6.08 2.72 6.08 6.09v17.15c0 3.36-2.72 6.08-6.08 6.08zm-63.62 0h-37.29c-3.36 0-6.08-2.72-6.08-6.08v-17.15c0-3.37 2.72-6.09 6.08-6.09h37.29c3.36 0 6.08 2.72 6.08 6.09v17.15c0 3.36-2.72 6.08-6.08 6.08z"/>
		</clipPath>
	</defs>
	<style>
		.s0 { fill: #fbf5f3 } 
		.s1 { fill: #7dc95e } 
		.s2 { fill: #f4d071 } 
		.s3 { fill: #efb041 } 
		.s4 { fill: #e89236 } 
		.s5 { fill: #7cdf64 } 
		.s6 { fill: #648767 } 
		.s7 { fill: #21255c } 
		.s8 { fill: #10164f } 
		.s9 { fill: #495375 } 
		.s10 { fill: #c7d2d7 } 
		.s11 { fill: #99a3b0 } 
		.s12 { fill: #eca85e } 
		.s13 { fill: #fbeed1 } 
		.s14 { fill: #fcf5e6 } 
		.s15 { opacity: .4;fill: none;stroke: #eca85e;stroke-linecap: round;stroke-width: 6 } 
		.s16 { fill: #f4c84d } 
		.s17 { fill: #ffffff } 
		.s18 { fill: #d6e9ea } 
		.s19 { fill: #7dd3e9 } 
		.s20 { fill: #26407a } 
		.s21 { fill: #214084 } 
		.s22 { fill: none;stroke: #ba3c17;stroke-width: 1.6 } 
		.s23 { fill: none;stroke: #59595b;stroke-linecap: round;stroke-width: 8 } 
	</style>
	<g id="BACKGROUND">
		<path id="&lt;Path&gt;" class="s0" d="m671.1 763c62.2-13.4 123.7-35.8 173.8-75 50.1-39.3 88-97 93.6-160.4 8-91.3-52.5-178.1-130.5-226.4-77.9-48.2-170.9-65-261.8-77.3-86.2-11.6-174.5-19.9-259.5-1.4-169.8 36.9-258.8 178.4-214.6 346.6 33.4 127.1 197.2 173.8 311.2 196 94.8 18.5 193.3 18.4 287.8-2.1z"/>
	</g>
	<g id="OBJECTS">
		<g id="&lt;Group&gt;">
			<path id="&lt;Compound Path&gt;" fill-rule="evenodd" class="s1" d="m668.7 243.6c0 85.9-155.4 262.5-155.4 262.5 0 0-155.4-176.6-155.4-262.5 0-85.8 69.6-155.4 155.4-155.4 85.8 0 155.4 69.6 155.4 155.4zm-98.8-16.9c0-31.2-25.3-56.6-56.6-56.6-31.3 0-56.6 25.4-56.6 56.6 0 31.3 25.3 56.7 56.6 56.7 31.3 0 56.6-25.4 56.6-56.7z"/>
			<g id="&lt;Group&gt;">
				<g id="&lt;Group&gt;">
					<g id="&lt;Group&gt;">
						<path id="&lt;Path&gt;" class="s2" d="m528.1 415.6c-6.8 12.6-39.9 23-65.2 56.1-4.3 5.6-9.5 19-9.6 26h-16.8c-2.1-38.2 16.1-77 45.9-100.9 7.3-5.8 15.6-10.9 24.8-11.7 5.9-0.6 12.2 1.1 16.9 4.6 1.1 0.8 2.1 1.8 2.9 2.8 1.3 1.4 2.3 3 3 4.8 2.3 5.9 1.1 12.8-1.9 18.3z"/>
						<path id="&lt;Path&gt;" class="s3" d="m527 392.5c-7.8 2.9-15.3 6.6-22.5 11-32.9 20.5-54.6 55.7-58.4 94.2h-3.7c1.1-10.9 3.4-21.6 7.1-31.9 12.7-34.9 40.2-62.7 74.6-76.1 1.1 0.8 2.1 1.8 2.9 2.8z"/>
					</g>
					<g id="&lt;Group&gt;">
						<g id="&lt;Group&gt;">
							<path id="&lt;Path&gt;" class="s3" d="m453.3 497.7h-33c-7.2-31.2-24.2-58.9-47.7-80.7-11.5-10.5-24.4-19.3-35.9-29.7-9.2-8.2-18.1-18.7-18.2-31.1 0-8.7 4.6-16.8 11.3-22.5 1.2-0.9 2.4-1.8 3.7-2.6q3.1-2 6.6-3.3c11.8-4.4 25.2-2.8 37.2 1.4 17.7 6.2 33.1 18.1 44.9 32.7 11.7 14.6 19.9 31.9 25.4 49.9 8.3 27.6 10.6 57.5 5.7 85.9z"/>
						</g>
						<path id="&lt;Path&gt;" class="s4" d="m443.6 497.7h-3.7c0-11.7-1-23.4-3.1-34.9-6-33.6-20.8-65.7-44.8-90.3-17.2-17.7-38.6-31.5-62.2-38.8 1.2-0.9 2.4-1.8 3.7-2.6 9.2 3 18.1 7 26.5 11.8 29.2 16.7 52.2 42.7 66.1 73.2 11.8 25.5 17.4 53.5 17.5 81.6z"/>
					</g>
				</g>
				<g id="&lt;Group&gt;">
					<g id="&lt;Group&gt;">
						<path id="&lt;Path&gt;" class="s4" d="m681.5 442.6c4.3 8 25.3 14.6 41.3 35.6 2.7 3.5 6 12.1 6.1 16.5h10.7c1.3-24.2-10.2-48.9-29.2-64-4.6-3.7-9.8-6.9-15.7-7.4-3.7-0.4-7.7 0.6-10.7 2.9q-1.1 0.8-1.9 1.8c-0.7 0.9-1.4 1.9-1.8 3-1.5 3.7-0.8 8.1 1.2 11.6z"/>
						<path id="&lt;Path&gt;" class="s3" d="m682.1 428c5 1.8 9.8 4.2 14.3 7 20.9 12.9 34.7 35.3 37 59.7h2.4c-0.7-6.9-2.2-13.7-4.5-20.2-8.1-22.2-25.5-39.8-47.3-48.3q-1.1 0.8-1.9 1.8z"/>
					</g>
					<g id="&lt;Group&gt;">
						<g id="&lt;Group&gt;">
							<path id="&lt;Path&gt;" class="s3" d="m728.9 494.7h20.9c4.6-19.8 15.4-37.4 30.3-51.2 7.2-6.6 15.4-12.2 22.8-18.8 5.8-5.3 11.4-11.9 11.5-19.8 0-5.5-2.9-10.6-7.2-14.2-0.8-0.6-1.5-1.2-2.4-1.7q-1.9-1.3-4.1-2.1c-7.5-2.8-16-1.8-23.6 0.9-11.2 4-21 11.5-28.5 20.8-7.4 9.2-12.6 20.2-16.1 31.6-5.3 17.5-6.7 36.4-3.6 54.5z"/>
						</g>
						<path id="&lt;Path&gt;" class="s4" d="m735.1 494.7h2.3c0-7.4 0.7-14.8 2-22.1 3.7-21.4 13.1-41.7 28.3-57.3 10.9-11.2 24.6-20 39.5-24.6-0.8-0.6-1.5-1.2-2.4-1.7-5.8 1.9-11.4 4.4-16.8 7.5-18.4 10.6-33.1 27.1-41.9 46.4-7.4 16.2-11 34-11 51.8z"/>
					</g>
				</g>
				<g id="&lt;Group&gt;">
					<path id="&lt;Path&gt;" class="s5" d="m756.7 359.2c-3.4 5.4-8.4 9.6-13.3 13.7-22.9 19-45.7 38.1-68.6 57.1 7.7-3.9 12.2-4.9 20.7-6.4 8.5-1.6 17.9-0.5 24.5 5 2.7 2.2 4.8 5.1 6 8.4 0.6 1.3 0.9 2.7 1.1 4.1 0.6 3.7 0 7.4-2 10.6-4.8 7.9-15.5 9.5-24.6 10.8-36 5.3-70.9 21.2-93.6 49.5h-21.8c7.3-36.1-1.3-72-13.5-106.8-4-11.5-9-22.9-9.7-35-0.8-12.2 3.8-25.7 14.6-31.4q2.7-1.4 5.7-2c1.4-0.4 2.8-0.5 4.2-0.6 9.8-0.4 20.1 4.9 26.4 12.9 8.5 10.7 10.9 25 11.5 38.7 0.5 13.6-0.4 28.1-1.8 42 12-29.7 15.6-61 11.2-92.8-1.8-12.9-5-25.9-3.3-38.8 1.7-12.9 9.7-26.2 22.3-29.2 0.9-0.2 1.8-0.3 2.6-0.4h0.1q2.2-0.2 4.3 0c6.6 0.4 13 3.3 18.1 7.7 6.7 6 11.2 14.2 14.2 22.7 9 24.9 9.9 54.6-2.1 78.2 6.1-13.5 15-24.6 25.8-34.5 6.4-5.8 13.7-11.1 22.2-12.3 7-1 14.8 1.4 19.1 6.8q1.3 1.5 2.1 3.5c0.1 0.1 0.2 0.2 0.2 0.3 2.4 5.9 0.8 12.8-2.6 18.2z"/>
					<g id="&lt;Group&gt;">
						<path id="&lt;Path&gt;" class="s6" d="m615.5 486.6c-0.1 0.2-0.3 0.3-0.4 0.5q15.4-24.4 33.6-46.8c22.9-28.2 49.1-53.9 77.8-76.3q15.8-12.3 32.6-23.3-0.8-2-2.1-3.5c-24.7 16.1-47.9 34.5-69.3 54.8-19.1 18.2-36.7 37.9-52.7 59 4.9-9.6 9.5-19.4 13.7-29.4 14.1-34.1 22.7-71.1 20.2-108.2-1-15.3-4-30.4-9.2-44.8q-2.1-0.2-4.3 0c10.9 29.7 12 62.5 6.7 93.6-6.4 37.1-21.9 71.7-40 104.3q-5.6 10.1-11.5 19.9-0.3 0.5-0.6 1c-2.4 4.2-4.9 8.3-7.5 12.4-0.2 0.4-0.4 0.8-0.7 1.2 8.7-44.4 6.9-90.7-5.1-134.3-2.8-10.3-6.3-20.5-10.3-30.5-1.4 0.1-2.8 0.2-4.2 0.6 18.6 46 25 97 18.4 146.3q-1.9 14.4-5.3 28.5-0.2 0.2-0.3 0.4h0.2 0.5 0.4 3.3 0.5 0.5 0.5c22.7-35.1 59.1-59.9 100.2-68 8.6-1.7 17.3-2.7 26-2.9-0.2-1.4-0.5-2.8-1.1-4.1-41.5 1.4-81.7 19.2-110.5 49.6z"/>
					</g>
				</g>
				<g id="&lt;Group&gt;">
					<path id="&lt;Path&gt;" class="s5" d="m361.7 391.9c0.1 4-1 7.9-2.1 11.7q-7.8 26.8-15.7 53.6c2.7-4.7 4.6-6.8 8.5-10.5 3.9-3.8 9.2-6.5 14.5-6 2.2 0.2 4.3 1 6.1 2.3q1.1 0.7 2 1.7c1.5 1.7 2.6 3.9 2.6 6.2 0.3 5.8-4.7 10.3-9 14.2-16.8 15.3-29.4 35.7-31.2 58.4l-11.3 7.6c-8.9-21.3-25.9-36.9-44.3-50.7-6.1-4.6-12.7-8.7-17.3-14.8-4.7-6-7-14.6-3.4-21.3q0.9-1.7 2.2-3.1 1-1 2-1.7c5-3.7 12.2-4.5 18.2-2.6 8.2 2.6 14.4 9.2 19.5 16.1 5 6.9 9.6 14.7 13.8 22.4-4.2-19.6-13.3-37.1-26.6-52.1-5.5-6-11.7-11.7-15.3-18.9-3.7-7.3-4.2-17 1.4-23q0.6-0.6 1.2-1.1 1-0.9 2.2-1.6c3.6-2 8-2.7 12.1-2.2 5.6 0.7 10.8 3.4 15.3 6.7 13.4 9.8 24.2 24.9 26.2 41.3-1.5-9-0.8-17.9 1.4-26.9 1.2-5.2 3.2-10.5 7.2-14.1 3.3-3 8.2-4.4 12.3-3.1q1.2 0.3 2.3 1 0.1 0.1 0.2 0.1c3.3 2.3 4.9 6.4 5 10.4z"/>
					<g id="&lt;Group&gt;">
						<path id="&lt;Path&gt;" class="s6" d="m333 507.3c0 0.1-0.1 0.3-0.1 0.4q-0.5-18.1 1.1-36c2-22.7 6.6-45.1 13.7-66.8q3.9-11.9 8.8-23.5-1.1-0.7-2.3-1c-7.2 16.9-12.8 34.6-16.8 52.6-3.6 16.1-5.8 32.5-6.8 49-0.8-6.7-1.8-13.4-3.1-20-4.6-22.7-13.1-44.8-27.4-63.2-5.8-7.6-12.7-14.4-20.4-20.1q-1.2 0.7-2.2 1.6c16.1 11.6 28.1 28.2 36.2 46.2 9.6 21.5 13.7 44.8 15.7 68.1q0.6 7.1 1 14.3-0.1 0.4 0 0.7 0.3 4.5 0.4 9.1 0.1 0.4 0.1 0.8c-11-26-28.1-49.4-49.6-67.8q-7.6-6.6-16-12.2-1 0.7-2 1.7c25.8 17.4 46.9 41.6 60.7 69.5q4 8.1 7.2 16.6 0 0.2 0 0.3h0.1l0.2-0.2 0.2-0.1 1.8-1.2 0.2-0.2 0.3-0.2 0.3-0.1c-0.5-26.1 9.7-51.7 28.2-70.3q5.8-5.8 12.5-10.6-0.9-1-2-1.7c-21.1 15.2-35.7 38.5-40 64.3z"/>
					</g>
				</g>
			</g>
			<g id="&lt;Group&gt;">
				<g id="&lt;Group&gt;">
					<g id="&lt;Group&gt;">
						<path id="&lt;Path&gt;" class="s7" d="m554.7 815.8h-40.5c-18.2 0-33 27.7-33 61.8 0 34.1 14.8 61.8 33 61.8q0.9 0 1.7-0.1h37q0.9 0.1 1.8 0.1c18.2 0 32.9-27.7 32.9-61.8 0-34.1-14.7-61.8-32.9-61.8z"/>
					</g>
					<g id="&lt;Group&gt;">
						<path id="&lt;Path&gt;" class="s8" d="m805.3 882.7h-79.5c0-42.3 17.8-76.6 39.7-76.6 22 0 39.8 34.3 39.8 76.6z"/>
						<g id="&lt;Group&gt;">
							<path id="&lt;Path&gt;" class="s7" d="m760.4 815.8h-40.5c-18.2 0-32.9 27.7-32.9 61.8 0 34.1 14.7 61.8 32.9 61.8q0.9 0 1.8-0.1h37q0.9 0.1 1.7 0.1c18.2 0 33-27.7 33-61.8 0-34.1-14.8-61.8-33-61.8z"/>
							<g id="&lt;Group&gt;">
								<path id="&lt;Path&gt;" class="s9" d="m793.4 877.6c0 34.1-14.8 61.8-33 61.8-18.2 0-32.9-27.7-32.9-61.8 0-34.1 14.7-61.8 32.9-61.8 18.2 0 33 27.7 33 61.8z"/>
								<path id="&lt;Path&gt;" class="s10" d="m756.1 847.1c1.8-1.7 3.7-2.6 5.7-2.6 8.3 0 14.9 15.1 14.9 33.6 0 18.6-6.6 33.6-14.9 33.6-2 0-3.9-0.9-5.7-2.6 5.4-5 9.2-17 9.2-31 0-14-3.8-26-9.2-31z"/>
								<path id="&lt;Path&gt;" class="s11" d="m756.1 847.1c5.4 5 9.2 17 9.2 31 0 14-3.8 26-9.2 31-5.4-5-9.2-17-9.2-31 0-14 3.8-26 9.2-31z"/>
							</g>
						</g>
						<g id="&lt;Group&gt;">
							<path id="&lt;Path&gt;" class="s12" d="m580.3 485.4h-326.4v397.3h326.4z"/>
							<path id="&lt;Path&gt;" class="s2" d="m551.2 485.3v397.4h174.6q0-4.7 0.3-9.2 0-0.8 0.1-1.6 0.6-7.9 1.9-15.1 0.2-0.8 0.3-1.6c1.1-5.4 2.5-10.4 4.1-15.1q0.3-0.8 0.6-1.6c2-5.6 4.5-10.7 7.2-15 0.4-0.6 0.7-1.1 1.1-1.7 5.4-7.9 11.8-13.2 18.8-15q2.6-0.7 5.3-0.7 2.7 0 5.3 0.7c7.1 1.8 13.5 7.1 18.9 15 0.3 0.6 0.7 1.1 1 1.7 2.8 4.3 5.2 9.4 7.3 15q0.3 0.8 0.6 1.6c1.6 4.7 3 9.7 4 15.1q0.2 0.8 0.3 1.6 1.4 7.2 2 15.1 0 0.8 0.1 1.6 0.3 4.5 0.3 9.2h20.5v-397.4z"/>
							<path id="&lt;Path&gt;" class="s13" d="m692.8 861.4h-110.7c-2 0-3.5-1.6-3.5-3.5v-53.4c0-1.9 1.5-3.5 3.5-3.5h110.7c1.9 0 3.5 1.6 3.5 3.5v53.4c0 1.9-1.6 3.5-3.5 3.5z"/>
							<path id="&lt;Path&gt;" class="s14" d="m737 672.7h-97v-187.4h97z"/>
							<g id="&lt;Group&gt;">
								<path id="&lt;Path&gt;" class="s15" d="m595.8 817.4h83.3"/>
								<path id="&lt;Path&gt;" class="s15" d="m595.8 831.2h83.3"/>
								<path id="&lt;Path&gt;" class="s15" d="m595.8 845h53.9"/>
							</g>
						</g>
					</g>
					<path id="&lt;Path&gt;" class="s12" d="m873.2 550.4h-274.6l-47.4-65.1h274.6z"/>
					<path id="&lt;Path&gt;" class="s2" d="m205.8 550.4h298.3l47.4-65.1h-298.3z"/>
					<g id="&lt;Group&gt;">
						<g id="&lt;Group&gt;">
							<path id="&lt;Path&gt;" class="s7" d="m232.1 685.8h-49.2c-0.6 0-1.1-0.4-1.1-1v-71.1c0-0.6 0.5-1.1 1.1-1.1h18.7c0.6 0 1.1 0.5 1.1 1.1 0 0.6-0.5 1.1-1.1 1.1h-17.6v68.9h48.1c0.6 0 1.1 0.5 1.1 1.1 0 0.6-0.5 1-1.1 1z"/>
							<path id="&lt;Path&gt;" class="s7" d="m176.3 676.1h13.2c3.1 0 5.6-2.5 5.6-5.6v-42.6c0-3.1-2.5-5.6-5.6-5.6h-13.2c-3.1 0-5.6 2.5-5.6 5.6v42.6c0 3.1 2.5 5.6 5.6 5.6z"/>
						</g>
						<path id="&lt;Path&gt;" class="s8" d="m510.6 882.7h-79.5c0-42.3 17.8-76.6 39.7-76.6 22 0 39.8 34.3 39.8 76.6z"/>
						<g id="&lt;Group&gt;">
							<path id="&lt;Path&gt;" class="s7" d="m466.6 815.8h-40.4c-18.2 0-33 27.7-33 61.8 0 34.1 14.8 61.8 33 61.8q0.8 0 1.7-0.1h37q0.9 0.1 1.7 0.1c18.2 0 33-27.7 33-61.8 0-34.1-14.8-61.8-33-61.8z"/>
							<g id="&lt;Group&gt;">
								<path id="&lt;Path&gt;" class="s9" d="m500.8 877.6c0 34.1-15.3 61.8-34.2 61.8-18.8 0-34.1-27.7-34.1-61.8 0-34.1 15.3-61.8 34.1-61.8 18.9 0 34.2 27.7 34.2 61.8z"/>
								<path id="&lt;Path&gt;" class="s10" d="m463.3 847.1c1.7-1.7 3.7-2.6 5.7-2.6 8.2 0 14.9 15.1 14.9 33.6 0 18.6-6.7 33.6-14.9 33.6-2 0-4-0.9-5.7-2.6 5.4-5 9.2-17 9.2-31 0-14-3.8-26-9.2-31z"/>
								<path id="&lt;Path&gt;" class="s11" d="m463.3 847.1c5.4 5 9.2 17 9.2 31 0 14-3.8 26-9.2 31-5.4-5-9.2-17-9.2-31 0-14 3.8-26 9.2-31z"/>
							</g>
						</g>
						<g id="&lt;Group&gt;">
							<path id="&lt;Path&gt;" class="s7" d="m243.8 815.8h-40.5c-18.2 0-32.9 27.7-32.9 61.8 0 34.1 14.7 61.8 32.9 61.8q0.9 0 1.8-0.1h37q0.9 0.1 1.7 0.1c18.2 0 33-27.7 33-61.8 0-34.1-14.8-61.8-33-61.8z"/>
						</g>
						<g id="&lt;Group&gt;">
							<path id="&lt;Path&gt;" class="s5" d="m533.4 581.9v300.8h-22.7c0-42.3-17.8-76.6-39.7-76.6-22 0-39.8 34.3-39.8 76.6h-293.9v-115.4c0-5.5 1.1-11 3.3-16.1l66.7-158.9c2.7-6.3 8.8-10.4 15.7-10.4z"/>
							<path id="&lt;Path&gt;" class="s16" d="m513.3 730.1h-24.2v-5.3h24.2z"/>
							<g id="&lt;Group&gt;">
								<g id="&lt;Group&gt;">
									<path id="&lt;Path&gt;" class="s17" d="m173.9 743.4h-12.8c-2.2 0-3.2-1.7-2.4-3.9l5.1-12.8c0.8-2.2 3.3-3.9 5.4-3.9h12.8c2.2 0 3.2 1.7 2.4 3.9l-5.1 12.8c-0.8 2.2-3.3 3.9-5.4 3.9z"/>
									<path id="&lt;Compound Path&gt;" fill-rule="evenodd" class="s6" d="m173.9 744.5h-12.8c-1.4 0-2.5-0.6-3.2-1.5-0.7-1.1-0.8-2.5-0.2-3.9l5.1-12.8c1-2.6 3.8-4.6 6.4-4.6h12.8c1.4 0 2.5 0.6 3.2 1.5 0.7 1.1 0.7 2.5 0.2 3.9l-5.1 12.8c-1 2.6-3.8 4.6-6.4 4.6zm-4.7-20.6c-1.7 0-3.7 1.5-4.4 3.2l-5.1 12.8c-0.3 0.8-0.3 1.4 0 1.9 0.3 0.4 0.9 0.5 1.4 0.5h12.8c1.7 0 3.7-1.4 4.4-3.2l5.1-12.8c0.3-0.7 0.3-1.4 0-1.8-0.4-0.5-0.9-0.6-1.4-0.6z"/>
								</g>
								<g id="&lt;Group&gt;">
									<path id="&lt;Path&gt;" class="s17" d="m377.3 743.4h-12.9c-2.1 0-3.2-1.7-2.3-3.9l5-12.8c0.9-2.2 3.3-3.9 5.5-3.9h12.8c2.1 0 3.2 1.7 2.3 3.9l-5 12.8c-0.9 2.2-3.3 3.9-5.4 3.9z"/>
									<path id="&lt;Compound Path&gt;" fill-rule="evenodd" class="s6" d="m377.3 744.5h-12.9c-1.3 0-2.4-0.6-3.1-1.5-0.7-1.1-0.8-2.5-0.2-3.9l5-12.8c1.1-2.6 3.9-4.6 6.5-4.6h12.8c1.3 0 2.5 0.6 3.1 1.5 0.7 1.1 0.8 2.5 0.2 3.9l-5 12.8c-1 2.6-3.9 4.6-6.4 4.6zm-4.7-20.6c-1.7 0-3.8 1.5-4.4 3.2l-5.1 12.8c-0.3 0.8-0.3 1.4 0 1.9 0.3 0.4 0.9 0.5 1.3 0.5h12.9c1.7 0 3.7-1.4 4.3-3.2l5.1-12.8c0.3-0.7 0.3-1.4 0-1.8-0.3-0.5-0.9-0.6-1.3-0.6z"/>
								</g>
							</g>
							<path id="&lt;Compound Path&gt;" fill-rule="evenodd" class="s6" d="m392.4 771.1v-23.2q0-0.2 0.1-0.4l20.1-46.6 44.8-103.6c0.2-0.3 0.5-0.5 0.8-0.5h64.3c0.5 0 0.9 0.4 0.9 0.8v192.2c0 0.4-0.4 0.8-0.9 0.8h-41.3c-6.7 0-13.2 1.3-19.4 3.9-14 5.8-24.6 17.4-29 31.9l-4.5 15c-0.1 0.3-0.5 0.6-0.8 0.6h-14.1c-0.5 0-0.8-0.4-0.8-0.8v-136l-18.6 42.8v128.1c0 0.4-0.3 0.8-0.8 0.8-0.4 0-0.8-0.4-0.8-0.8v-102.8m129.3-174.8h-63l-44.5 102.9v138.9h12.7l4.3-14.3c4.6-15 15.5-27.1 30-33.1 6.4-2.6 13.1-3.9 20-3.9h40.5z"/>
							<g id="&lt;Group&gt;">
								<g id="&lt;Group&gt;">
									<path id="&lt;Path&gt;" class="s6" d="m406.9 835.9v41c0 6.4-4.7 11.5-10.5 11.5h-259.1c-5.8 0-10.5-5.1-10.5-11.5v-41c0-6.3 4.7-11.5 10.5-11.5h259.1c5.8 0 10.5 5.2 10.5 11.5z"/>
									<path id="&lt;Path&gt;" class="s1" d="m370.3 835.9v41c0 6.4-4.7 11.5-10.5 11.5h-222.5c-5.8 0-10.5-5.1-10.5-11.5v-41c0-6.3 4.7-11.5 10.5-11.5h222.5c5.8 0 10.5 5.2 10.5 11.5z"/>
								</g>
								<g id="&lt;Group&gt;">
									<g id="&lt;Group&gt;">
										<path id="&lt;Path&gt;" class="s17" d="m181.5 871.1h-37.5c-1.5 0-2.7-1.3-2.7-3v-15.4c0-1.7 1.2-3.1 2.7-3.1h29.9c1 0 1.9 0.6 2.4 1.6l7.6 15.4c1 2.1-0.3 4.5-2.4 4.5z"/>
										<g id="&lt;Group&gt;">
											<path id="&lt;Path&gt;" class="s16" d="m179.4 868.6h-18c-0.7 0-1.3-0.7-1.3-1.5v-7.4c0-0.8 0.6-1.4 1.3-1.4h14.3c0.5 0 1 0.2 1.2 0.7l3.6 7.4c0.5 1-0.1 2.2-1.1 2.2z"/>
										</g>
										<path id="&lt;Path&gt;" class="s18" d="m158.2 859.9c0 4.7-3.4 8.5-7.7 8.5-4.3 0-7.7-3.8-7.7-8.5 0-4.7 3.4-8.5 7.7-8.5 4.3 0 7.7 3.8 7.7 8.5z"/>
									</g>
									<g id="&lt;Group&gt;">
										<path id="&lt;Path&gt;" class="s17" d="m316.7 871.1h37.4c1.5 0 2.8-1.3 2.8-3v-15.4c0-1.7-1.3-3.1-2.8-3.1h-29.8c-1.1 0-2 0.6-2.5 1.6l-7.6 15.4c-1 2.1 0.4 4.5 2.5 4.5z"/>
										<g id="&lt;Group&gt;">
											<path id="&lt;Path&gt;" class="s16" d="m318.8 868.6h17.9c0.7 0 1.3-0.7 1.3-1.5v-7.4c0-0.8-0.6-1.4-1.3-1.4h-14.3c-0.5 0-0.9 0.2-1.2 0.7l-3.6 7.4c-0.5 1 0.2 2.2 1.2 2.2z"/>
										</g>
										<path id="&lt;Path&gt;" class="s18" d="m339.9 859.9c0 4.7 3.4 8.5 7.7 8.5 4.3 0 7.7-3.8 7.7-8.5 0-4.7-3.4-8.5-7.7-8.5-4.3 0-7.7 3.8-7.7 8.5z"/>
									</g>
								</g>
								<path id="&lt;Path&gt;" class="s6" d="m300 869.4h-101.7c-0.7 0-1.3-0.4-1.7-1l-8.6-15.5c-0.8-1.4 0.1-3.3 1.6-3.3h119.1c1.5 0 2.4 1.9 1.6 3.3l-8.6 15.5c-0.4 0.6-1 1-1.7 1z"/>
							</g>
							<g id="&lt;Group&gt;">
								<g id="&lt;Group&gt;">
									<g id="&lt;Group&gt;">
										<g id="&lt;Group&gt;">
											<path id="&lt;Path&gt;" class="s19" d="m441.6 614.4l-34.2 79.9c-1.3 3-4.2 5-7.5 5h-218.2c-5.8 0-9.7-6-7.4-11.4l34.2-79.9c1.2-3 4.2-4.9 7.4-4.9h218.2c5.9 0 9.8 5.9 7.5 11.3z"/>
											<path id="&lt;Compound Path&gt;" fill-rule="evenodd" class="s20" d="m441.6 614.4l-34.2 79.9c-1.3 3-4.2 5-7.5 5h-218.2c-5.8 0-9.7-6-7.4-11.4l34.2-79.9c1.2-3 4.2-4.9 7.4-4.9h218.2c5.9 0 9.8 5.9 7.5 11.3zm-225.7-7c-1.5 0-2.9 0.9-3.5 2.3l-34.1 80c-0.6 1.1-0.4 2.4 0.3 3.5 0.7 1.1 1.8 1.7 3.1 1.7h218.2c1.6 0 2.9-0.9 3.5-2.3l34.2-79.9c0.5-1.2 0.4-2.5-0.3-3.6-0.7-1.1-1.9-1.7-3.2-1.7z"/>
										</g>
										<path id="&lt;Path&gt;" class="s21" d="m259.3 697.9c-0.3 0-0.5-0.1-0.7-0.4l-10.9-14.6h-48c-0.4 0-0.8-0.4-0.8-0.8 0-0.5 0.4-0.8 0.8-0.8h48.4c0.3 0 0.5 0.1 0.7 0.3l11.1 15c0.3 0.3 0.2 0.8-0.1 1.1q-0.3 0.2-0.5 0.2z"/>
										<path id="&lt;Path&gt;" class="s21" d="m362.3 697.9c-0.3 0-0.5-0.1-0.7-0.4l-10.9-14.6h-48c-0.4 0-0.8-0.4-0.8-0.8 0-0.5 0.4-0.8 0.8-0.8h48.4c0.3 0 0.5 0.1 0.7 0.3l11.1 15c0.3 0.3 0.2 0.8-0.1 1.1q-0.3 0.2-0.5 0.2z"/>
									</g>
									<g id="&lt;Group&gt;" style="opacity: .4">
										<path id="&lt;Path&gt;" class="s17" d="m346.6 603.1l-96.2 96.2h-33.8l96.2-96.2z"/>
										<path id="&lt;Path&gt;" class="s17" d="m370.8 603.1l-96.1 96.2h-9.1l96.2-96.2z"/>
									</g>
								</g>
								<g id="&lt;Group&gt;">
									<g id="&lt;Group&gt;">
										<path id="&lt;Path&gt;" class="s19" d="m517.1 608.8v84.8c0 3.1-2.5 5.7-5.7 5.7h-80.8q-1.1 0-2-0.4c-3-1.1-4.6-4.5-3.3-7.6l11.4-26.7 24.9-58.1c0.9-2.1 2.9-3.4 5.2-3.4h44.6c3.2 0 5.7 2.5 5.7 5.7z"/>
										<path id="&lt;Compound Path&gt;" fill-rule="evenodd" class="s20" d="m517.1 608.8v84.8c0 3.1-2.5 5.7-5.7 5.7h-80.9c-4 0-6.8-4.2-5.2-8l36.3-84.8c0.9-2.1 2.9-3.4 5.2-3.4h44.6c3.2 0 5.7 2.5 5.7 5.7zm-50.3-1.4c-0.5 0-1 0.4-1.2 0.9l-36.3 84.7c-0.3 0.6 0 1.1 0.1 1.3 0.2 0.2 0.5 0.6 1.1 0.6h80.9c0.8 0 1.4-0.6 1.4-1.3v-84.8c0-0.8-0.6-1.4-1.4-1.4z"/>
									</g>
									<g id="&lt;Group&gt;" style="opacity: .4">
										<path id="&lt;Path&gt;" class="s17" d="m517.1 608.8v1.5l-88.5 88.6c-3-1.1-4.6-4.5-3.3-7.6l11.4-26.7 61.5-61.5h13.2c3.2 0 5.7 2.5 5.7 5.7z"/>
										<path id="&lt;Path&gt;" class="s17" d="m517.1 620.8v11.3l-67.2 67.2h-11.3z"/>
									</g>
								</g>
							</g>
							<g id="&lt;Group&gt;">
								<g id="&lt;Group&gt;">
									<path id="&lt;Compound Path&gt;" fill-rule="evenodd" class="s21" d="m305.2 818.2h-37.3c-3.4 0-6.1-2.8-6.1-6.1v-17.2c0-3.3 2.7-6 6.1-6h37.3c3.3 0 6 2.7 6 6v17.2c0 3.3-2.7 6.1-6 6.1zm-63.7 0h-37.2c-3.4 0-6.1-2.8-6.1-6.1v-17.2c0-3.3 2.7-6 6.1-6h37.2c3.4 0 6.1 2.7 6.1 6v17.2c0 3.3-2.7 6.1-6.1 6.1z"/>
									<g id="&lt;Clip Group&gt;" clip-path="url(#cp1)">
										<g id="&lt;Group&gt;">
											<g id="&lt;Group&gt;">
												<path id="&lt;Path&gt;" class="s7" d="m320.6 814.6l-3.9 2.6h-128.8l-3.2-2.6z"/>
											</g>
											<g id="&lt;Group&gt;">
												<path id="&lt;Path&gt;" class="s7" d="m329.9 808.6l-3.9 2.5h-145.6l-3.1-2.5z"/>
											</g>
											<g id="&lt;Group&gt;">
												<path id="&lt;Path&gt;" class="s7" d="m339.1 802.5l-3.9 2.6h-162.2l-3.2-2.6z"/>
											</g>
											<g id="&lt;Group&gt;">
												<path id="&lt;Path&gt;" class="s7" d="m348.4 796.4l-3.9 2.6h-179l-3.2-2.6z"/>
											</g>
											<g id="&lt;Group&gt;">
												<path id="&lt;Path&gt;" class="s7" d="m357.6 790.3l-3.9 2.6h-195.7l-3.2-2.6z"/>
											</g>
										</g>
									</g>
								</g>
								<g id="&lt;Group&gt;">
									<path id="&lt;Path&gt;" class="s17" d="m182.5 817.1h-35.8c-2.2 0-3.9-1.7-3.9-3.9v-18.6c0-2.2 1.7-3.9 3.9-3.9h35.8c2.2 0 3.9 1.7 3.9 3.9v18.6c0 2.2-1.7 3.9-3.9 3.9z"/>
									<g id="&lt;Group&gt;">
										<path id="&lt;Path&gt;" class="s18" d="m166.3 803.9c0 6.5-4.7 11.7-10.6 11.7-5.9 0-10.6-5.2-10.6-11.7 0-6.5 4.7-11.7 10.6-11.7 5.9 0 10.6 5.2 10.6 11.7z"/>
										<path id="&lt;Path&gt;" class="s17" d="m156.2 800.2c0 2.4-1.8 4.4-4 4.4-2.2 0-4-2-4-4.4 0-2.4 1.8-4.4 4-4.4 2.2 0 4 2 4 4.4z"/>
									</g>
									<g id="&lt;Group&gt;">
										<path id="&lt;Path&gt;" class="s18" d="m185 805.4c0 5.3-3.9 9.5-8.7 9.5-4.8 0-8.7-4.2-8.7-9.5 0-5.3 3.9-9.6 8.7-9.6 4.8 0 8.7 4.3 8.7 9.6z"/>
										<path id="&lt;Path&gt;" class="s17" d="m176.7 802.3c0 2-1.5 3.6-3.3 3.6-1.8 0-3.2-1.6-3.2-3.6 0-2 1.4-3.6 3.2-3.6 1.8 0 3.3 1.6 3.3 3.6z"/>
									</g>
								</g>
								<g id="&lt;Group&gt;">
									<path id="&lt;Path&gt;" class="s17" d="m326.1 817.1h35.8c2.1 0 3.9-1.7 3.9-3.9v-18.6c0-2.2-1.8-3.9-3.9-3.9h-35.8c-2.2 0-4 1.7-4 3.9v18.6c0 2.2 1.8 3.9 4 3.9z"/>
									<g id="&lt;Group&gt;">
										<path id="&lt;Path&gt;" class="s18" d="m342.2 803.9c0 6.5 4.8 11.7 10.7 11.7 5.8 0 10.6-5.2 10.6-11.7 0-6.5-4.8-11.7-10.6-11.7-5.9 0-10.7 5.2-10.7 11.7z"/>
										<path id="&lt;Path&gt;" class="s17" d="m352.4 800.2c0 2.4 1.8 4.4 4 4.4 2.2 0 4-2 4-4.4 0-2.4-1.8-4.4-4-4.4-2.2 0-4 2-4 4.4z"/>
									</g>
									<g id="&lt;Group&gt;">
										<path id="&lt;Path&gt;" class="s18" d="m323.6 805.4c0 5.3 3.9 9.5 8.7 9.5 4.8 0 8.7-4.2 8.7-9.5 0-5.3-3.9-9.6-8.7-9.6-4.8 0-8.7 4.3-8.7 9.6z"/>
										<path id="&lt;Path&gt;" class="s17" d="m331.9 802.3c0 2 1.4 3.6 3.2 3.6 1.8 0 3.3-1.6 3.3-3.6 0-2-1.5-3.6-3.3-3.6-1.8 0-3.2 1.6-3.2 3.6z"/>
									</g>
								</g>
							</g>
							<path id="&lt;Path&gt;" class="s6" d="m164.8 763.2h180.7v9.5h-180.7z"/>
						</g>
						<g id="&lt;Group&gt;">
							<path id="&lt;Path&gt;" class="s7" d="m480.4 685.8h-49.2c-0.6 0-1-0.4-1-1 0-0.6 0.4-1.1 1-1.1h48.1v-68.9h-17.6c-0.6 0-1-0.5-1-1.1 0-0.6 0.4-1.1 1-1.1h18.7c0.6 0 1.1 0.5 1.1 1.1v71.1c0 0.6-0.5 1-1.1 1z"/>
							<path id="&lt;Path&gt;" class="s7" d="m487 676.1h-13.2c-3.1 0-5.6-2.5-5.6-5.6v-42.6c0-3.1 2.5-5.6 5.6-5.6h13.2c3.1 0 5.6 2.5 5.6 5.6v42.6c0 3.1-2.5 5.6-5.6 5.6z"/>
						</g>
					</g>
				</g>
			</g>
			<path id="&lt;Path&gt;" class="s22" d=""/>
		</g>
		<path id="&lt;Path&gt;" class="s23" d="m117.8 943.7h764.4"/>
	</g>
</svg>