<svg version="1.2" xmlns="http://www.w3.org/2000/svg" viewBox="0 0 1000 1000" width="1000" height="1000">
	<title>251881-P4G1LC-832-ai</title>
	<style>
		.s0 { fill: #76ab35 } 
		.s1 { fill: #6e952a } 
		.s2 { fill: #856034 } 
		.s3 { fill: #76c535 } 
	</style>
	<g id="OBJECTS">
		<g id="&lt;Group&gt;">
			<g id="&lt;Group&gt;">
				<path id="&lt;Compound Path&gt;" class="s0" d="m831.6 571.2c0-60.1-32.9-112.6-81.7-140.3 12-22.6 18.8-48.3 18.8-75.6 0-57.3-29.8-107.5-74.8-136.2 3.8-11 5.9-22.8 5.9-35.2 0-60.3-48.9-109.2-109.2-109.2-4.1 0-8.1 0.3-12.1 0.7-29.2-41.9-77.7-69.4-132.7-69.4-89.1 0-161.4 72.3-161.4 161.4 0 28.9 7.6 56 20.9 79.5-73.5 15.1-128.7 80.1-128.7 158.1 0 49.7 22.5 94.1 57.8 123.7-30.7 23.8-50.6 61-50.6 102.9 0 71.9 58.3 130.2 130.3 130.2 20.6 0 40.1-4.9 57.4-13.4 31.3 54.3 90 90.9 157.2 90.9 74.3 0 138.1-44.6 166.1-108.5 77.5-11.9 136.8-78.8 136.8-159.6z"/>
				<g id="&lt;Group&gt;">
					<path id="&lt;Path&gt;" class="s1" d="m761.3 384c1.5 0.8 2.9 1.7 4.3 2.6 1.1-5.6 1.9-11.4 2.4-17.2q-2.9 7.5-6.7 14.6z"/>
					<path id="&lt;Path&gt;" class="s1" d="m616.9 78.1c-1.3-0.4-2.6-0.8-3.9-1.1 0.2 0.4 0.6 0.8 0.8 1.2 1.1-0.1 2.1-0.1 3.1-0.1z"/>
					<path id="&lt;Path&gt;" class="s1" d="m713.9 642c-24.1 55-79 93.4-142.9 93.4-57.8 0-108.3-31.5-135.2-78.3-14.9 7.4-31.6 11.6-49.4 11.6-61.9 0-112-50.1-112-112 0-36.1 17-68 43.5-88.5-30.4-25.5-49.8-63.7-49.8-106.5 0-67 47.6-123 110.7-136-25-15.5-77.3-75.4-30.6-186.9-38.8 29.5-63.8 76.2-63.8 128.6 0 28.9 7.6 56 20.9 79.5-73.5 15.1-128.7 80.1-128.7 158.1 0 49.7 22.5 94.1 57.8 123.7-30.7 23.8-50.6 61-50.6 102.9 0 71.9 58.3 130.2 130.3 130.2 20.6 0 40.1-4.9 57.4-13.4 31.3 54.3 90 90.9 157.2 90.9 74.3 0 138.1-44.6 166.1-108.5 77.5-11.9 136.8-78.8 136.8-159.6 0-11.9-1.3-23.5-3.7-34.7-12.9 54.7-57.8 96.9-114 105.5z"/>
				</g>
			</g>
			<g id="&lt;Group&gt;">
				<path id="&lt;Path&gt;" class="s2" d="m479.5 735.5l18.5 13.4 146.2-210.3-10.9-7.9z"/>
				<path id="&lt;Path&gt;" class="s2" d="m504.1 603.9l-16.4 11.8-129.3-186 9.6-7z"/>
				<path id="&lt;Path&gt;" class="s2" d="m518.9 994h-50.1l20-726.5h10.1z"/>
			</g>
			<g id="&lt;Group&gt;">
				<path id="&lt;Path&gt;" class="s0" d="m702.6 220.3c4.2-15.7 21.9-24.7 21.9-24.7 0 0 10.8 16.5 6.7 32.3-4.2 15.7-21.9 24.7-21.9 24.7 0 0-10.9-16.5-6.7-32.3z"/>
				<path id="&lt;Path&gt;" class="s0" d="m250.5 360.5c9.8-13 29.6-14.6 29.6-14.6 0 0 3.7 19.4-6.1 32.4-9.9 13-29.6 14.6-29.6 14.6 0 0-3.8-19.4 6.1-32.4z"/>
				<path id="&lt;Path&gt;" class="s3" d="m550.1 186.7c9.8-13 29.6-14.6 29.6-14.6 0 0 3.8 19.4-6.1 32.4-9.8 13-29.6 14.6-29.6 14.6 0 0-3.8-19.5 6.1-32.4z"/>
				<path id="&lt;Path&gt;" class="s3" d="m506.7 127.2c8 14.2 1.5 32.9 1.5 32.9 0 0-19.3-4.3-27.2-18.5-8-14.3-1.6-33-1.6-33 0 0 19.4 4.3 27.3 18.6z"/>
				<path id="&lt;Path&gt;" class="s3" d="m646.4 365.1c14.2 8 18.5 27.3 18.5 27.3 0 0-18.7 6.4-32.9-1.5-14.3-7.9-18.6-27.3-18.6-27.3 0 0 18.7-6.4 33 1.5z"/>
				<path id="&lt;Path&gt;" class="s1" d="m371.9 648.7c-6.4 15-25.2 21.3-25.2 21.3 0 0-8.3-18-1.9-33 6.5-14.9 25.2-21.3 25.2-21.3 0 0 8.4 18 1.9 33z"/>
				<path id="&lt;Path&gt;" class="s1" d="m391.9 319.2c-8.1-14.1-1.9-33-1.9-33 0 0 19.4 4.1 27.5 18.3 8.1 14.1 1.9 32.9 1.9 32.9 0 0-19.3-4.1-27.5-18.2z"/>
				<path id="&lt;Path&gt;" class="s1" d="m671.9 666.4c13.7 8.9 16.7 28.5 16.7 28.5 0 0-19.1 5.1-32.8-3.8-13.6-8.9-16.6-28.5-16.6-28.5 0 0 19.1-5.1 32.7 3.8z"/>
				<path id="&lt;Path&gt;" class="s0" d="m803 490.5c-14.5-7.4-19.7-26.5-19.7-26.5 0 0 18.5-7.2 33 0.1 14.6 7.4 19.7 26.5 19.7 26.5 0 0-18.5 7.2-33-0.1z"/>
				<path id="&lt;Path&gt;" class="s0" d="m815.8 454.9c-9.1 13.5-28.7 16.2-28.7 16.2 0 0-4.9-19.2 4.2-32.7 9.2-13.5 28.8-16.2 28.8-16.2 0 0 4.8 19.2-4.3 32.7z"/>
				<path id="&lt;Path&gt;" class="s1" d="m181.5 551.9c-9.3-13.4-4.6-32.7-4.6-32.7 0 0 19.7 2.5 28.9 16 9.2 13.4 4.5 32.6 4.5 32.6 0 0-19.6-2.5-28.8-15.9z"/>
				<path id="&lt;Path&gt;" class="s1" d="m196.7 596.7c-13.5 9-32.7 4-32.7 4 0 0 2.8-19.6 16.4-28.6 13.6-9 32.8-4 32.8-4 0 0-2.9 19.6-16.5 28.6z"/>
			</g>
		</g>
	</g>
</svg>